<svg xmlns="http://www.w3.org/2000/svg" xmlns:xlink="http://www.w3.org/1999/xlink" width="1920" zoomAndPan="magnify" viewBox="0 0 1440 809.999993" height="1080" preserveAspectRatio="xMidYMid meet" version="1.0"><defs><filter x="0%" y="0%" width="100%" height="100%" id="a047eac41c"><feColorMatrix values="0 0 0 0 1 0 0 0 0 1 0 0 0 0 1 0 0 0 1 0" color-interpolation-filters="sRGB"/></filter><g/><mask id="2b6b0ed05d"><g filter="url(#a047eac41c)"><rect x="-144" width="1728" fill="#000000" y="-80.999999" height="971.999992" fill-opacity="0.74"/></g></mask><clipPath id="85f943c5d2"><path d="M 1 0.703125 L 1238 0.703125 L 1238 697.734375 L 1 697.734375 Z M 1 0.703125 " clip-rule="nonzero"/></clipPath><clipPath id="d53fe96286"><rect x="0" width="1239" y="0" height="699"/></clipPath><clipPath id="bfd0f719e7"><path d="M 81 35.851562 L 1318 35.851562 L 1318 732.882812 L 81 732.882812 Z M 81 35.851562 " clip-rule="nonzero"/></clipPath><clipPath id="3ca2f22b0c"><path d="M 226.761719 180.59375 L 650.597656 180.59375 L 650.597656 604.429688 L 226.761719 604.429688 Z M 226.761719 180.59375 " clip-rule="nonzero"/></clipPath><clipPath id="0242cb1826"><path d="M 200.382812 154.214844 L 677.835938 154.214844 L 677.835938 631.667969 L 200.382812 631.667969 Z M 200.382812 154.214844 " clip-rule="nonzero"/></clipPath><clipPath id="80ea69506e"><path d="M 311 131 L 704 131 L 704 520.964844 L 311 520.964844 Z M 311 131 " clip-rule="nonzero"/></clipPath><clipPath id="7ffd87e141"><path d="M 592 36 L 795.835938 36 L 795.835938 242 L 592 242 Z M 592 36 " clip-rule="nonzero"/></clipPath><clipPath id="bb2b43af92"><path d="M 351 187 L 647 187 L 647 480.636719 L 351 480.636719 Z M 351 187 " clip-rule="nonzero"/></clipPath><clipPath id="cf3ac0f791"><path d="M 563 116 L 715.671875 116 L 715.671875 271 L 563 271 Z M 563 116 " clip-rule="nonzero"/></clipPath></defs><g mask="url(#2b6b0ed05d)"><g transform="matrix(1, 0, 0, 1, 121, 76)"><g clip-path="url(#d53fe96286)"><g clip-path="url(#85f943c5d2)"><path fill="#9374dd" d="M 1088.183594 698.132812 L 150.632812 698.132812 C 68 698.132812 1.078125 631.207031 1.078125 548.578125 L 1.078125 150.257812 C 1.078125 67.628906 68 0.703125 150.632812 0.703125 L 1237.738281 0.703125 L 1237.738281 548.578125 C 1237.738281 631.207031 1170.8125 698.132812 1088.183594 698.132812 Z M 1088.183594 698.132812 " fill-opacity="1" fill-rule="nonzero"/></g></g></g></g><g clip-path="url(#bfd0f719e7)"><path fill="#a0d0dd" d="M 1168.332031 733.28125 L 230.78125 733.28125 C 148.148438 733.28125 81.226562 666.355469 81.226562 583.726562 L 81.226562 185.40625 C 81.226562 102.777344 148.148438 35.851562 230.78125 35.851562 L 1317.886719 35.851562 L 1317.886719 583.726562 C 1317.886719 666.355469 1250.964844 733.28125 1168.332031 733.28125 Z M 1168.332031 733.28125 " fill-opacity="1" fill-rule="nonzero"/></g><g fill="#ffffff" fill-opacity="1"><g transform="translate(760.493266, 348.838928)"><g><path d="M 5.859375 -47.515625 C 5.859375 -56.773438 7.941406 -65.101562 12.109375 -72.5 C 16.285156 -79.894531 21.984375 -85.679688 29.203125 -89.859375 C 36.421875 -94.035156 44.429688 -96.125 53.234375 -96.125 C 63.585938 -96.125 72.617188 -93.628906 80.328125 -88.640625 C 88.046875 -83.648438 93.675781 -76.566406 97.21875 -67.390625 L 82.375 -67.390625 C 79.738281 -73.109375 75.945312 -77.507812 71 -80.59375 C 66.050781 -83.6875 60.128906 -85.234375 53.234375 -85.234375 C 46.609375 -85.234375 40.660156 -83.6875 35.390625 -80.59375 C 30.128906 -77.507812 26 -73.128906 23 -67.453125 C 20.007812 -61.785156 18.515625 -55.140625 18.515625 -47.515625 C 18.515625 -39.984375 20.007812 -33.378906 23 -27.703125 C 26 -22.035156 30.128906 -17.65625 35.390625 -14.5625 C 40.660156 -11.476562 46.609375 -9.9375 53.234375 -9.9375 C 60.128906 -9.9375 66.050781 -11.457031 71 -14.5 C 75.945312 -17.539062 79.738281 -21.921875 82.375 -27.640625 L 97.21875 -27.640625 C 93.675781 -18.566406 88.046875 -11.554688 80.328125 -6.609375 C 72.617188 -1.660156 63.585938 0.8125 53.234375 0.8125 C 44.429688 0.8125 36.421875 -1.25 29.203125 -5.375 C 21.984375 -9.507812 16.285156 -15.25 12.109375 -22.59375 C 7.941406 -29.945312 5.859375 -38.253906 5.859375 -47.515625 Z M 5.859375 -47.515625 "/></g></g></g><g fill="#ffffff" fill-opacity="1"><g transform="translate(865.607277, 348.838928)"><g><path d="M 22.875 -62.5 C 25.050781 -66.757812 28.160156 -70.066406 32.203125 -72.421875 C 36.242188 -74.785156 41.164062 -75.96875 46.96875 -75.96875 L 46.96875 -63.171875 L 43.703125 -63.171875 C 29.816406 -63.171875 22.875 -55.640625 22.875 -40.578125 L 22.875 0 L 10.484375 0 L 10.484375 -74.609375 L 22.875 -74.609375 Z M 22.875 -62.5 "/></g></g></g><g fill="#ffffff" fill-opacity="1"><g transform="translate(916.394219, 348.838928)"><g><path d="M 78.5625 -40.171875 C 78.5625 -37.804688 78.425781 -35.304688 78.15625 -32.671875 L 18.515625 -32.671875 C 18.972656 -25.328125 21.492188 -19.585938 26.078125 -15.453125 C 30.660156 -11.328125 36.21875 -9.265625 42.75 -9.265625 C 48.101562 -9.265625 52.570312 -10.507812 56.15625 -13 C 59.75 -15.5 62.269531 -18.835938 63.71875 -23.015625 L 77.0625 -23.015625 C 75.0625 -15.835938 71.066406 -10.003906 65.078125 -5.515625 C 59.085938 -1.023438 51.644531 1.21875 42.75 1.21875 C 35.675781 1.21875 29.347656 -0.367188 23.765625 -3.546875 C 18.179688 -6.722656 13.800781 -11.238281 10.625 -17.09375 C 7.445312 -22.945312 5.859375 -29.726562 5.859375 -37.4375 C 5.859375 -45.15625 7.398438 -51.914062 10.484375 -57.71875 C 13.566406 -63.53125 17.898438 -68.003906 23.484375 -71.140625 C 29.066406 -74.273438 35.488281 -75.84375 42.75 -75.84375 C 49.832031 -75.84375 56.097656 -74.296875 61.546875 -71.203125 C 66.992188 -68.117188 71.191406 -63.875 74.140625 -58.46875 C 77.085938 -53.070312 78.5625 -46.972656 78.5625 -40.171875 Z M 65.765625 -42.75 C 65.765625 -47.46875 64.71875 -51.53125 62.625 -54.9375 C 60.539062 -58.34375 57.707031 -60.929688 54.125 -62.703125 C 50.539062 -64.472656 46.566406 -65.359375 42.203125 -65.359375 C 35.941406 -65.359375 30.609375 -63.359375 26.203125 -59.359375 C 21.804688 -55.367188 19.289062 -49.832031 18.65625 -42.75 Z M 65.765625 -42.75 "/></g></g></g><g fill="#ffffff" fill-opacity="1"><g transform="translate(1000.812202, 348.838928)"><g><path d="M 5.859375 -37.578125 C 5.859375 -45.203125 7.398438 -51.894531 10.484375 -57.65625 C 13.566406 -63.425781 17.804688 -67.898438 23.203125 -71.078125 C 28.609375 -74.253906 34.625 -75.84375 41.25 -75.84375 C 47.789062 -75.84375 53.460938 -74.429688 58.265625 -71.609375 C 63.078125 -68.796875 66.664062 -65.257812 69.03125 -61 L 69.03125 -74.609375 L 81.5625 -74.609375 L 81.5625 0 L 69.03125 0 L 69.03125 -13.890625 C 66.582031 -9.535156 62.925781 -5.925781 58.0625 -3.0625 C 53.207031 -0.207031 47.5625 1.21875 41.125 1.21875 C 34.5 1.21875 28.503906 -0.410156 23.140625 -3.671875 C 17.785156 -6.941406 13.566406 -11.523438 10.484375 -17.421875 C 7.398438 -23.328125 5.859375 -30.046875 5.859375 -37.578125 Z M 69.03125 -37.4375 C 69.03125 -43.070312 67.894531 -47.972656 65.625 -52.140625 C 63.351562 -56.316406 60.289062 -59.515625 56.4375 -61.734375 C 52.582031 -63.960938 48.335938 -65.078125 43.703125 -65.078125 C 39.078125 -65.078125 34.859375 -63.988281 31.046875 -61.8125 C 27.234375 -59.632812 24.191406 -56.457031 21.921875 -52.28125 C 19.648438 -48.101562 18.515625 -43.203125 18.515625 -37.578125 C 18.515625 -31.859375 19.648438 -26.890625 21.921875 -22.671875 C 24.191406 -18.453125 27.234375 -15.226562 31.046875 -13 C 34.859375 -10.78125 39.078125 -9.671875 43.703125 -9.671875 C 48.335938 -9.671875 52.582031 -10.78125 56.4375 -13 C 60.289062 -15.226562 63.351562 -18.453125 65.625 -22.671875 C 67.894531 -26.890625 69.03125 -31.8125 69.03125 -37.4375 Z M 69.03125 -37.4375 "/></g></g></g><g fill="#ffffff" fill-opacity="1"><g transform="translate(1092.855044, 348.838928)"><g><path d="M 25.59375 -64.40625 L 25.59375 -20.421875 C 25.59375 -16.796875 26.363281 -14.234375 27.90625 -12.734375 C 29.457031 -11.234375 32.132812 -10.484375 35.9375 -10.484375 L 45.0625 -10.484375 L 45.0625 0 L 33.90625 0 C 27.007812 0 21.832031 -1.585938 18.375 -4.765625 C 14.925781 -7.941406 13.203125 -13.160156 13.203125 -20.421875 L 13.203125 -64.40625 L 3.546875 -64.40625 L 3.546875 -74.609375 L 13.203125 -74.609375 L 13.203125 -93.40625 L 25.59375 -93.40625 L 25.59375 -74.609375 L 45.0625 -74.609375 L 45.0625 -64.40625 Z M 25.59375 -64.40625 "/></g></g></g><g fill="#ffffff" fill-opacity="1"><g transform="translate(1142.41657, 348.838928)"><g><path d="M 78.5625 -40.171875 C 78.5625 -37.804688 78.425781 -35.304688 78.15625 -32.671875 L 18.515625 -32.671875 C 18.972656 -25.328125 21.492188 -19.585938 26.078125 -15.453125 C 30.660156 -11.328125 36.21875 -9.265625 42.75 -9.265625 C 48.101562 -9.265625 52.570312 -10.507812 56.15625 -13 C 59.75 -15.5 62.269531 -18.835938 63.71875 -23.015625 L 77.0625 -23.015625 C 75.0625 -15.835938 71.066406 -10.003906 65.078125 -5.515625 C 59.085938 -1.023438 51.644531 1.21875 42.75 1.21875 C 35.675781 1.21875 29.347656 -0.367188 23.765625 -3.546875 C 18.179688 -6.722656 13.800781 -11.238281 10.625 -17.09375 C 7.445312 -22.945312 5.859375 -29.726562 5.859375 -37.4375 C 5.859375 -45.15625 7.398438 -51.914062 10.484375 -57.71875 C 13.566406 -63.53125 17.898438 -68.003906 23.484375 -71.140625 C 29.066406 -74.273438 35.488281 -75.84375 42.75 -75.84375 C 49.832031 -75.84375 56.097656 -74.296875 61.546875 -71.203125 C 66.992188 -68.117188 71.191406 -63.875 74.140625 -58.46875 C 77.085938 -53.070312 78.5625 -46.972656 78.5625 -40.171875 Z M 65.765625 -42.75 C 65.765625 -47.46875 64.71875 -51.53125 62.625 -54.9375 C 60.539062 -58.34375 57.707031 -60.929688 54.125 -62.703125 C 50.539062 -64.472656 46.566406 -65.359375 42.203125 -65.359375 C 35.941406 -65.359375 30.609375 -63.359375 26.203125 -59.359375 C 21.804688 -55.367188 19.289062 -49.832031 18.65625 -42.75 Z M 65.765625 -42.75 "/></g></g></g><g fill="#ffffff" fill-opacity="1"><g transform="translate(782.155713, 512.244789)"><g><path d="M 82.375 -67.390625 C 79.738281 -72.929688 75.925781 -77.222656 70.9375 -80.265625 C 65.945312 -83.304688 60.140625 -84.828125 53.515625 -84.828125 C 46.878906 -84.828125 40.90625 -83.304688 35.59375 -80.265625 C 30.289062 -77.222656 26.117188 -72.863281 23.078125 -67.1875 C 20.035156 -61.519531 18.515625 -54.960938 18.515625 -47.515625 C 18.515625 -40.078125 20.035156 -33.539062 23.078125 -27.90625 C 26.117188 -22.28125 30.289062 -17.945312 35.59375 -14.90625 C 40.90625 -11.863281 46.878906 -10.34375 53.515625 -10.34375 C 62.765625 -10.34375 70.382812 -13.109375 76.375 -18.640625 C 82.375 -24.179688 85.875 -31.675781 86.875 -41.125 L 49.015625 -41.125 L 49.015625 -51.1875 L 100.078125 -51.1875 L 100.078125 -41.65625 C 99.347656 -33.851562 96.894531 -26.707031 92.71875 -20.21875 C 88.539062 -13.726562 83.046875 -8.597656 76.234375 -4.828125 C 69.429688 -1.066406 61.859375 0.8125 53.515625 0.8125 C 44.703125 0.8125 36.664062 -1.25 29.40625 -5.375 C 22.144531 -9.507812 16.40625 -15.25 12.1875 -22.59375 C 7.96875 -29.945312 5.859375 -38.253906 5.859375 -47.515625 C 5.859375 -56.773438 7.96875 -65.101562 12.1875 -72.5 C 16.40625 -79.894531 22.144531 -85.65625 29.40625 -89.78125 C 36.664062 -93.914062 44.703125 -95.984375 53.515625 -95.984375 C 63.585938 -95.984375 72.503906 -93.488281 80.265625 -88.5 C 88.023438 -83.507812 93.675781 -76.472656 97.21875 -67.390625 Z M 82.375 -67.390625 "/></g></g></g><g fill="#ffffff" fill-opacity="1"><g transform="translate(888.1142, 512.244789)"><g><path d="M 22.875 -62.5 C 25.050781 -66.757812 28.160156 -70.066406 32.203125 -72.421875 C 36.242188 -74.785156 41.164062 -75.96875 46.96875 -75.96875 L 46.96875 -63.171875 L 43.703125 -63.171875 C 29.816406 -63.171875 22.875 -55.640625 22.875 -40.578125 L 22.875 0 L 10.484375 0 L 10.484375 -74.609375 L 22.875 -74.609375 Z M 22.875 -62.5 "/></g></g></g><g fill="#ffffff" fill-opacity="1"><g transform="translate(938.901143, 512.244789)"><g><path d="M 43.03125 1.21875 C 36.039062 1.21875 29.707031 -0.367188 24.03125 -3.546875 C 18.351562 -6.722656 13.90625 -11.238281 10.6875 -17.09375 C 7.46875 -22.945312 5.859375 -29.726562 5.859375 -37.4375 C 5.859375 -45.0625 7.515625 -51.800781 10.828125 -57.65625 C 14.140625 -63.507812 18.65625 -68.003906 24.375 -71.140625 C 30.09375 -74.273438 36.488281 -75.84375 43.5625 -75.84375 C 50.644531 -75.84375 57.046875 -74.273438 62.765625 -71.140625 C 68.484375 -68.003906 73 -63.53125 76.3125 -57.71875 C 79.625 -51.914062 81.28125 -45.15625 81.28125 -37.4375 C 81.28125 -29.726562 79.578125 -22.945312 76.171875 -17.09375 C 72.773438 -11.238281 68.171875 -6.722656 62.359375 -3.546875 C 56.546875 -0.367188 50.101562 1.21875 43.03125 1.21875 Z M 43.03125 -9.671875 C 47.476562 -9.671875 51.648438 -10.710938 55.546875 -12.796875 C 59.453125 -14.890625 62.609375 -18.019531 65.015625 -22.1875 C 67.421875 -26.363281 68.625 -31.445312 68.625 -37.4375 C 68.625 -43.425781 67.441406 -48.507812 65.078125 -52.6875 C 62.722656 -56.863281 59.640625 -59.972656 55.828125 -62.015625 C 52.015625 -64.054688 47.882812 -65.078125 43.4375 -65.078125 C 38.894531 -65.078125 34.738281 -64.054688 30.96875 -62.015625 C 27.207031 -59.972656 24.191406 -56.863281 21.921875 -52.6875 C 19.648438 -48.507812 18.515625 -43.425781 18.515625 -37.4375 C 18.515625 -31.363281 19.625 -26.238281 21.84375 -22.0625 C 24.070312 -17.882812 27.046875 -14.773438 30.765625 -12.734375 C 34.492188 -10.691406 38.582031 -9.671875 43.03125 -9.671875 Z M 43.03125 -9.671875 "/></g></g></g><g fill="#ffffff" fill-opacity="1"><g transform="translate(1026.042281, 512.244789)"><g><path d="M 76.65625 -74.609375 L 76.65625 0 L 64.265625 0 L 64.265625 -11.03125 C 61.898438 -7.21875 58.609375 -4.242188 54.390625 -2.109375 C 50.171875 0.0234375 45.519531 1.09375 40.4375 1.09375 C 34.625 1.09375 29.40625 -0.109375 24.78125 -2.515625 C 20.15625 -4.921875 16.5 -8.53125 13.8125 -13.34375 C 11.132812 -18.15625 9.796875 -24.007812 9.796875 -30.90625 L 9.796875 -74.609375 L 22.0625 -74.609375 L 22.0625 -32.546875 C 22.0625 -25.191406 23.921875 -19.539062 27.640625 -15.59375 C 31.359375 -11.644531 36.441406 -9.671875 42.890625 -9.671875 C 49.515625 -9.671875 54.734375 -11.710938 58.546875 -15.796875 C 62.359375 -19.878906 64.265625 -25.820312 64.265625 -33.625 L 64.265625 -74.609375 Z M 76.65625 -74.609375 "/></g></g></g><g fill="#ffffff" fill-opacity="1"><g transform="translate(1113.18342, 512.244789)"><g><path d="M 22.875 -60.859375 C 25.320312 -65.128906 28.972656 -68.691406 33.828125 -71.546875 C 38.691406 -74.410156 44.34375 -75.84375 50.78125 -75.84375 C 57.40625 -75.84375 63.414062 -74.253906 68.8125 -71.078125 C 74.21875 -67.898438 78.460938 -63.425781 81.546875 -57.65625 C 84.640625 -51.894531 86.1875 -45.203125 86.1875 -37.578125 C 86.1875 -30.046875 84.640625 -23.328125 81.546875 -17.421875 C 78.460938 -11.523438 74.21875 -6.941406 68.8125 -3.671875 C 63.414062 -0.410156 57.40625 1.21875 50.78125 1.21875 C 44.425781 1.21875 38.820312 -0.207031 33.96875 -3.0625 C 29.113281 -5.925781 25.414062 -9.488281 22.875 -13.75 L 22.875 35.40625 L 10.484375 35.40625 L 10.484375 -74.609375 L 22.875 -74.609375 Z M 73.53125 -37.578125 C 73.53125 -43.203125 72.394531 -48.101562 70.125 -52.28125 C 67.851562 -56.457031 64.785156 -59.632812 60.921875 -61.8125 C 57.066406 -63.988281 52.828125 -65.078125 48.203125 -65.078125 C 43.660156 -65.078125 39.457031 -63.960938 35.59375 -61.734375 C 31.738281 -59.515625 28.65625 -56.296875 26.34375 -52.078125 C 24.03125 -47.859375 22.875 -42.976562 22.875 -37.4375 C 22.875 -31.8125 24.03125 -26.890625 26.34375 -22.671875 C 28.65625 -18.453125 31.738281 -15.226562 35.59375 -13 C 39.457031 -10.78125 43.660156 -9.671875 48.203125 -9.671875 C 52.828125 -9.671875 57.066406 -10.78125 60.921875 -13 C 64.785156 -15.226562 67.851562 -18.453125 70.125 -22.671875 C 72.394531 -26.890625 73.53125 -31.859375 73.53125 -37.578125 Z M 73.53125 -37.578125 "/></g></g></g><g clip-path="url(#3ca2f22b0c)"><path fill="#ffffff" d="M 315.226562 180.59375 C 266.578125 180.59375 226.761719 220.410156 226.761719 269.058594 L 226.761719 516.761719 C 226.761719 565.40625 266.578125 605.226562 315.226562 605.226562 L 562.929688 605.226562 C 611.578125 605.226562 651.394531 565.40625 651.394531 516.761719 L 651.394531 269.058594 C 651.394531 220.410156 611.578125 180.59375 562.929688 180.59375 Z M 315.226562 215.980469 L 562.929688 215.980469 C 592.449219 215.980469 616.007812 239.539062 616.007812 269.058594 L 616.007812 516.761719 C 616.007812 546.28125 592.449219 569.839844 562.929688 569.839844 L 315.226562 569.839844 C 285.707031 569.839844 262.148438 546.28125 262.148438 516.761719 L 262.148438 269.058594 C 262.148438 239.539062 285.707031 215.980469 315.226562 215.980469 Z M 315.226562 215.980469 " fill-opacity="1" fill-rule="nonzero"/></g><g clip-path="url(#0242cb1826)"><path fill="#ffffff" d="M 299.835938 154.214844 C 245.144531 154.214844 200.382812 198.976562 200.382812 253.667969 L 200.382812 532.132812 C 200.382812 586.824219 245.144531 631.585938 299.835938 631.585938 L 578.300781 631.585938 C 632.992188 631.585938 677.753906 586.824219 677.753906 532.132812 L 677.753906 253.667969 C 677.753906 198.976562 632.992188 154.214844 578.300781 154.214844 Z M 299.835938 193.996094 L 578.300781 193.996094 C 611.488281 193.996094 637.972656 220.480469 637.972656 253.667969 L 637.972656 532.132812 C 637.972656 565.320312 611.488281 591.804688 578.300781 591.804688 L 299.835938 591.804688 C 266.648438 591.804688 240.164062 565.320312 240.164062 532.132812 L 240.164062 253.667969 C 240.164062 220.480469 266.648438 193.996094 299.835938 193.996094 Z M 299.835938 193.996094 " fill-opacity="1" fill-rule="nonzero"/></g><g clip-path="url(#80ea69506e)"><path fill="#a0d0dd" d="M 569.019531 131.132812 L 336.6875 363.460938 C 334.5625 365.589844 332.632812 367.882812 330.890625 370.335938 C 329.148438 372.789062 327.625 375.371094 326.320312 378.082031 C 325.011719 380.789062 323.941406 383.589844 323.105469 386.480469 C 322.269531 389.371094 321.679688 392.308594 321.335938 395.296875 L 312.078125 476.578125 C 311.929688 478.003906 311.851562 479.433594 311.851562 480.867188 C 311.851562 482.296875 311.925781 483.726562 312.078125 485.152344 C 312.226562 486.578125 312.453125 487.992188 312.75 489.390625 C 313.050781 490.792969 313.421875 492.175781 313.867188 493.539062 C 314.308594 494.898438 314.824219 496.234375 315.410156 497.542969 C 315.992188 498.851562 316.644531 500.125 317.363281 501.367188 C 318.082031 502.605469 318.863281 503.804688 319.710938 504.960938 C 320.554688 506.117188 321.457031 507.226562 322.417969 508.289062 C 323.378906 509.351562 324.394531 510.363281 325.460938 511.316406 C 326.53125 512.273438 327.644531 513.171875 328.808594 514.007812 C 329.96875 514.847656 331.171875 515.621094 332.414062 516.335938 C 333.660156 517.046875 334.9375 517.691406 336.246094 518.269531 C 337.558594 518.847656 338.898438 519.355469 340.261719 519.789062 C 341.625 520.226562 343.011719 520.589844 344.414062 520.882812 C 345.816406 521.175781 347.230469 521.390625 348.65625 521.53125 C 350.082031 521.675781 351.511719 521.742188 352.945312 521.734375 L 357.6875 521.734375 L 438.96875 512.476562 C 441.945312 512.132812 444.875 511.546875 447.757812 510.722656 C 450.636719 509.894531 453.429688 508.839844 456.140625 507.550781 C 458.847656 506.265625 461.429688 504.765625 463.890625 503.054688 C 466.351562 501.34375 468.65625 499.441406 470.804688 497.351562 L 703.132812 264.796875 Z M 569.019531 131.132812 " fill-opacity="1" fill-rule="nonzero"/></g><g clip-path="url(#7ffd87e141)"><path fill="#a0d0dd" d="M 781.703125 111.488281 L 722.773438 52.5625 C 721.546875 51.328125 720.257812 50.15625 718.914062 49.046875 C 717.570312 47.941406 716.171875 46.902344 714.726562 45.933594 C 713.277344 44.960938 711.789062 44.066406 710.253906 43.242188 C 708.71875 42.417969 707.144531 41.671875 705.535156 41.003906 C 703.925781 40.335938 702.289062 39.75 700.621094 39.242188 C 698.957031 38.734375 697.269531 38.3125 695.558594 37.96875 C 693.851562 37.628906 692.128906 37.375 690.394531 37.203125 C 688.664062 37.03125 686.925781 36.945312 685.183594 36.945312 C 683.441406 36.945312 681.703125 37.03125 679.96875 37.203125 C 678.234375 37.375 676.515625 37.628906 674.804688 37.96875 C 673.097656 38.3125 671.410156 38.734375 669.742188 39.242188 C 668.074219 39.75 666.4375 40.335938 664.828125 41.003906 C 663.21875 41.671875 661.648438 42.417969 660.113281 43.242188 C 658.578125 44.066406 657.085938 44.960938 655.640625 45.933594 C 654.191406 46.902344 652.796875 47.941406 651.453125 49.046875 C 650.105469 50.15625 648.820312 51.328125 647.589844 52.5625 L 592.949219 107.199219 L 727.066406 241.3125 L 781.703125 186.675781 C 782.9375 185.445312 784.109375 184.160156 785.21875 182.8125 C 786.324219 181.46875 787.363281 180.074219 788.332031 178.625 C 789.304688 177.179688 790.199219 175.6875 791.023438 174.152344 C 791.847656 172.617188 792.59375 171.042969 793.261719 169.4375 C 793.929688 167.828125 794.515625 166.1875 795.023438 164.523438 C 795.53125 162.855469 795.953125 161.167969 796.292969 159.460938 C 796.636719 157.75 796.890625 156.03125 797.0625 154.296875 C 797.234375 152.5625 797.320312 150.824219 797.320312 149.082031 C 797.320312 147.339844 797.234375 145.601562 797.0625 143.867188 C 796.890625 142.136719 796.636719 140.414062 796.292969 138.707031 C 795.953125 136.996094 795.53125 135.308594 795.023438 133.640625 C 794.515625 131.976562 793.929688 130.339844 793.261719 128.730469 C 792.59375 127.121094 791.847656 125.546875 791.023438 124.011719 C 790.199219 122.476562 789.304688 120.984375 788.332031 119.539062 C 787.363281 118.09375 786.324219 116.695312 785.21875 115.351562 C 784.109375 114.007812 782.9375 112.71875 781.703125 111.488281 Z M 781.703125 111.488281 " fill-opacity="1" fill-rule="nonzero"/></g><g clip-path="url(#bb2b43af92)"><path fill="#ffffff" d="M 545.257812 187.34375 L 370.132812 362.472656 C 368.53125 364.074219 367.074219 365.804688 365.761719 367.652344 C 364.449219 369.503906 363.300781 371.449219 362.316406 373.492188 C 361.332031 375.53125 360.523438 377.644531 359.894531 379.820312 C 359.261719 382 358.816406 384.214844 358.558594 386.46875 L 351.582031 447.734375 C 351.46875 448.808594 351.410156 449.886719 351.410156 450.96875 C 351.410156 452.046875 351.46875 453.125 351.582031 454.199219 C 351.695312 455.273438 351.863281 456.339844 352.089844 457.394531 C 352.3125 458.449219 352.59375 459.492188 352.929688 460.519531 C 353.261719 461.546875 353.652344 462.554688 354.09375 463.539062 C 354.53125 464.523438 355.023438 465.484375 355.566406 466.417969 C 356.105469 467.355469 356.695312 468.257812 357.332031 469.128906 C 357.96875 470.003906 358.652344 470.839844 359.375 471.640625 C 360.101562 472.441406 360.863281 473.203125 361.671875 473.921875 C 362.476562 474.640625 363.316406 475.320312 364.191406 475.949219 C 365.066406 476.582031 365.972656 477.167969 366.910156 477.703125 C 367.847656 478.238281 368.8125 478.726562 369.800781 479.160156 C 370.789062 479.597656 371.796875 479.980469 372.824219 480.308594 C 373.855469 480.636719 374.898438 480.910156 375.953125 481.132812 C 377.011719 481.351562 378.078125 481.515625 379.152344 481.621094 C 380.226562 481.730469 381.304688 481.78125 382.386719 481.773438 L 385.960938 481.773438 L 447.226562 474.796875 C 449.472656 474.535156 451.679688 474.09375 453.851562 473.472656 C 456.023438 472.847656 458.128906 472.050781 460.171875 471.082031 C 462.210938 470.113281 464.160156 468.984375 466.015625 467.691406 C 467.867188 466.402344 469.605469 464.96875 471.226562 463.394531 L 646.351562 288.097656 Z M 545.257812 187.34375 " fill-opacity="1" fill-rule="nonzero"/></g><g clip-path="url(#cf3ac0f791)"><path fill="#ffffff" d="M 705.574219 172.539062 L 661.15625 128.121094 C 660.230469 127.1875 659.257812 126.308594 658.246094 125.472656 C 657.230469 124.636719 656.179688 123.855469 655.089844 123.121094 C 654 122.390625 652.875 121.714844 651.71875 121.09375 C 650.558594 120.476562 649.375 119.914062 648.160156 119.410156 C 646.949219 118.90625 645.714844 118.460938 644.457031 118.082031 C 643.203125 117.699219 641.929688 117.378906 640.640625 117.121094 C 639.355469 116.863281 638.058594 116.671875 636.75 116.542969 C 635.441406 116.414062 634.132812 116.347656 632.820312 116.347656 C 631.507812 116.347656 630.195312 116.414062 628.890625 116.542969 C 627.582031 116.671875 626.285156 116.863281 624.996094 117.121094 C 623.710938 117.378906 622.4375 117.699219 621.179688 118.082031 C 619.925781 118.460938 618.691406 118.90625 617.476562 119.410156 C 616.265625 119.914062 615.082031 120.476562 613.921875 121.09375 C 612.765625 121.714844 611.640625 122.390625 610.550781 123.121094 C 609.460938 123.855469 608.40625 124.636719 607.394531 125.472656 C 606.378906 126.308594 605.410156 127.1875 604.484375 128.121094 L 563.296875 169.304688 L 664.390625 270.398438 L 705.574219 229.210938 C 706.507812 228.285156 707.390625 227.316406 708.222656 226.300781 C 709.058594 225.289062 709.839844 224.234375 710.574219 223.144531 C 711.304688 222.054688 711.980469 220.929688 712.601562 219.773438 C 713.222656 218.617188 713.78125 217.429688 714.285156 216.21875 C 714.789062 215.003906 715.234375 213.769531 715.617188 212.515625 C 715.996094 211.257812 716.316406 209.984375 716.574219 208.699219 C 716.832031 207.410156 717.023438 206.113281 717.152344 204.804688 C 717.28125 203.5 717.347656 202.1875 717.347656 200.875 C 717.347656 199.5625 717.28125 198.253906 717.152344 196.945312 C 717.023438 195.640625 716.832031 194.339844 716.574219 193.054688 C 716.316406 191.765625 715.996094 190.492188 715.617188 189.238281 C 715.234375 187.980469 714.789062 186.746094 714.285156 185.535156 C 713.78125 184.320312 713.222656 183.136719 712.601562 181.980469 C 711.980469 180.820312 711.304688 179.695312 710.574219 178.605469 C 709.839844 177.515625 709.058594 176.464844 708.222656 175.449219 C 707.390625 174.4375 706.507812 173.464844 705.574219 172.539062 Z M 705.574219 172.539062 " fill-opacity="1" fill-rule="nonzero"/></g></svg>