<svg xmlns="http://www.w3.org/2000/svg" xmlns:xlink="http://www.w3.org/1999/xlink" width="1920" zoomAndPan="magnify" viewBox="0 0 1440 809.999993" height="1080" preserveAspectRatio="xMidYMid meet" version="1.0"><defs><filter x="0%" y="0%" width="100%" height="100%" id="a6812f33cd"><feColorMatrix values="0 0 0 0 1 0 0 0 0 1 0 0 0 0 1 0 0 0 1 0" color-interpolation-filters="sRGB"/></filter><g/><mask id="73041c382b"><g filter="url(#a6812f33cd)"><rect x="-144" width="1728" fill="#000000" y="-80.999999" height="971.999992" fill-opacity="0.74"/></g></mask><clipPath id="45d684a95f"><path d="M 1 0.703125 L 1238 0.703125 L 1238 698.203125 L 1 698.203125 Z M 1 0.703125 " clip-rule="nonzero"/></clipPath><clipPath id="de3dde06b5"><rect x="0" width="1239" y="0" height="699"/></clipPath><clipPath id="df83f7f06a"><path d="M 81 35.851562 L 1318 35.851562 L 1318 733.351562 L 81 733.351562 Z M 81 35.851562 " clip-rule="nonzero"/></clipPath></defs><g mask="url(#73041c382b)"><g transform="matrix(1, 0, 0, 1, 121, 76)"><g clip-path="url(#de3dde06b5)"><g clip-path="url(#45d684a95f)"><path fill="#9374dd" d="M 1088.210938 698.144531 L 150.640625 698.144531 C 68.007812 698.144531 1.082031 631.21875 1.082031 548.589844 L 1.082031 150.261719 C 1.082031 67.628906 68.007812 0.703125 150.640625 0.703125 L 1237.769531 0.703125 L 1237.769531 548.589844 C 1237.769531 631.21875 1170.84375 698.144531 1088.210938 698.144531 Z M 1088.210938 698.144531 " fill-opacity="1" fill-rule="nonzero"/></g></g></g></g><g clip-path="url(#df83f7f06a)"><path fill="#a0d0dd" d="M 1168.359375 733.292969 L 230.789062 733.292969 C 148.15625 733.292969 81.230469 666.367188 81.230469 583.738281 L 81.230469 185.410156 C 81.230469 102.777344 148.15625 35.851562 230.789062 35.851562 L 1317.917969 35.851562 L 1317.917969 583.738281 C 1317.917969 666.367188 1250.992188 733.292969 1168.359375 733.292969 Z M 1168.359375 733.292969 " fill-opacity="1" fill-rule="nonzero"/></g><g fill="#ffffff" fill-opacity="1"><g transform="translate(219.259389, 455.249997)"><g><path d="M 4.796875 -51.09375 C 4.796875 -61.164062 6.972656 -70.144531 11.328125 -78.03125 C 15.679688 -85.914062 21.753906 -92.0625 29.546875 -96.46875 C 37.335938 -100.875 46.164062 -103.078125 56.03125 -103.078125 C 68.132812 -103.078125 78.488281 -99.878906 87.09375 -93.484375 C 95.707031 -87.097656 101.46875 -78.390625 104.375 -67.359375 L 77.09375 -67.359375 C 75.050781 -71.617188 72.164062 -74.859375 68.4375 -77.078125 C 64.71875 -79.304688 60.488281 -80.421875 55.75 -80.421875 C 48.101562 -80.421875 41.90625 -77.757812 37.15625 -72.4375 C 32.414062 -67.113281 30.046875 -60 30.046875 -51.09375 C 30.046875 -42.195312 32.414062 -35.085938 37.15625 -29.765625 C 41.90625 -24.441406 48.101562 -21.78125 55.75 -21.78125 C 60.488281 -21.78125 64.71875 -22.890625 68.4375 -25.109375 C 72.164062 -27.335938 75.050781 -30.582031 77.09375 -34.84375 L 104.375 -34.84375 C 101.46875 -23.8125 95.707031 -15.125 87.09375 -8.78125 C 78.488281 -2.445312 68.132812 0.71875 56.03125 0.71875 C 46.164062 0.71875 37.335938 -1.476562 29.546875 -5.875 C 21.753906 -10.28125 15.679688 -16.398438 11.328125 -24.234375 C 6.972656 -32.078125 4.796875 -41.03125 4.796875 -51.09375 Z M 4.796875 -51.09375 "/></g></g></g><g fill="#ffffff" fill-opacity="1"><g transform="translate(329.87136, 455.249997)"><g><path d="M 33.828125 -67.5 C 36.734375 -71.957031 40.363281 -75.46875 44.71875 -78.03125 C 49.070312 -80.59375 53.910156 -81.875 59.234375 -81.875 L 59.234375 -55.59375 L 52.40625 -55.59375 C 46.207031 -55.59375 41.5625 -54.257812 38.46875 -51.59375 C 35.375 -48.9375 33.828125 -44.269531 33.828125 -37.59375 L 33.828125 0 L 9 0 L 9 -81 L 33.828125 -81 Z M 33.828125 -67.5 "/></g></g></g><g fill="#ffffff" fill-opacity="1"><g transform="translate(391.999867, 455.249997)"><g><path d="M 85.359375 -41.8125 C 85.359375 -39.488281 85.210938 -37.066406 84.921875 -34.546875 L 28.75 -34.546875 C 29.132812 -29.515625 30.753906 -25.664062 33.609375 -23 C 36.460938 -20.34375 39.96875 -19.015625 44.125 -19.015625 C 50.320312 -19.015625 54.628906 -21.628906 57.046875 -26.859375 L 83.46875 -26.859375 C 82.113281 -21.535156 79.671875 -16.742188 76.140625 -12.484375 C 72.609375 -8.222656 68.179688 -4.882812 62.859375 -2.46875 C 57.535156 -0.0507812 51.582031 1.15625 45 1.15625 C 37.0625 1.15625 29.992188 -0.535156 23.796875 -3.921875 C 17.609375 -7.304688 12.769531 -12.144531 9.28125 -18.4375 C 5.800781 -24.726562 4.0625 -32.082031 4.0625 -40.5 C 4.0625 -48.925781 5.78125 -56.28125 9.21875 -62.5625 C 12.65625 -68.851562 17.46875 -73.691406 23.65625 -77.078125 C 29.851562 -80.472656 36.96875 -82.171875 45 -82.171875 C 52.84375 -82.171875 59.8125 -80.523438 65.90625 -77.234375 C 72 -73.941406 76.765625 -69.242188 80.203125 -63.140625 C 83.640625 -57.046875 85.359375 -49.9375 85.359375 -41.8125 Z M 59.953125 -48.34375 C 59.953125 -52.601562 58.5 -55.988281 55.59375 -58.5 C 52.695312 -61.019531 49.070312 -62.28125 44.71875 -62.28125 C 40.550781 -62.28125 37.039062 -61.066406 34.1875 -58.640625 C 31.332031 -56.222656 29.566406 -52.789062 28.890625 -48.34375 Z M 59.953125 -48.34375 "/></g></g></g><g fill="#ffffff" fill-opacity="1"><g transform="translate(481.41848, 455.249997)"><g><path d="M 4.0625 -40.640625 C 4.0625 -48.972656 5.632812 -56.28125 8.78125 -62.5625 C 11.925781 -68.851562 16.207031 -73.691406 21.625 -77.078125 C 27.050781 -80.472656 33.101562 -82.171875 39.78125 -82.171875 C 45.488281 -82.171875 50.492188 -81.007812 54.796875 -78.6875 C 59.109375 -76.363281 62.425781 -73.3125 64.75 -69.53125 L 64.75 -81 L 89.578125 -81 L 89.578125 0 L 64.75 0 L 64.75 -11.46875 C 62.332031 -7.695312 58.96875 -4.648438 54.65625 -2.328125 C 50.351562 -0.00390625 45.34375 1.15625 39.625 1.15625 C 33.050781 1.15625 27.050781 -0.554688 21.625 -3.984375 C 16.207031 -7.421875 11.925781 -12.304688 8.78125 -18.640625 C 5.632812 -24.984375 4.0625 -32.316406 4.0625 -40.640625 Z M 64.75 -40.5 C 64.75 -46.695312 63.03125 -51.582031 59.59375 -55.15625 C 56.15625 -58.738281 51.96875 -60.53125 47.03125 -60.53125 C 42.09375 -60.53125 37.90625 -58.765625 34.46875 -55.234375 C 31.039062 -51.703125 29.328125 -46.835938 29.328125 -40.640625 C 29.328125 -34.453125 31.039062 -29.539062 34.46875 -25.90625 C 37.90625 -22.28125 42.09375 -20.46875 47.03125 -20.46875 C 51.96875 -20.46875 56.15625 -22.257812 59.59375 -25.84375 C 63.03125 -29.425781 64.75 -34.3125 64.75 -40.5 Z M 64.75 -40.5 "/></g></g></g><g fill="#ffffff" fill-opacity="1"><g transform="translate(579.98218, 455.249997)"><g><path d="M 54.15625 -21.046875 L 54.15625 0 L 41.515625 0 C 32.515625 0 25.5 -2.195312 20.46875 -6.59375 C 15.4375 -11 12.921875 -18.1875 12.921875 -28.15625 L 12.921875 -60.390625 L 3.046875 -60.390625 L 3.046875 -81 L 12.921875 -81 L 12.921875 -100.75 L 37.75 -100.75 L 37.75 -81 L 54 -81 L 54 -60.390625 L 37.75 -60.390625 L 37.75 -27.875 C 37.75 -25.457031 38.328125 -23.710938 39.484375 -22.640625 C 40.648438 -21.578125 42.585938 -21.046875 45.296875 -21.046875 Z M 54.15625 -21.046875 "/></g></g></g><g fill="#ffffff" fill-opacity="1"><g transform="translate(638.917144, 455.249997)"><g><path d="M 85.359375 -41.8125 C 85.359375 -39.488281 85.210938 -37.066406 84.921875 -34.546875 L 28.75 -34.546875 C 29.132812 -29.515625 30.753906 -25.664062 33.609375 -23 C 36.460938 -20.34375 39.96875 -19.015625 44.125 -19.015625 C 50.320312 -19.015625 54.628906 -21.628906 57.046875 -26.859375 L 83.46875 -26.859375 C 82.113281 -21.535156 79.671875 -16.742188 76.140625 -12.484375 C 72.609375 -8.222656 68.179688 -4.882812 62.859375 -2.46875 C 57.535156 -0.0507812 51.582031 1.15625 45 1.15625 C 37.0625 1.15625 29.992188 -0.535156 23.796875 -3.921875 C 17.609375 -7.304688 12.769531 -12.144531 9.28125 -18.4375 C 5.800781 -24.726562 4.0625 -32.082031 4.0625 -40.5 C 4.0625 -48.925781 5.78125 -56.28125 9.21875 -62.5625 C 12.65625 -68.851562 17.46875 -73.691406 23.65625 -77.078125 C 29.851562 -80.472656 36.96875 -82.171875 45 -82.171875 C 52.84375 -82.171875 59.8125 -80.523438 65.90625 -77.234375 C 72 -73.941406 76.765625 -69.242188 80.203125 -63.140625 C 83.640625 -57.046875 85.359375 -49.9375 85.359375 -41.8125 Z M 59.953125 -48.34375 C 59.953125 -52.601562 58.5 -55.988281 55.59375 -58.5 C 52.695312 -61.019531 49.070312 -62.28125 44.71875 -62.28125 C 40.550781 -62.28125 37.039062 -61.066406 34.1875 -58.640625 C 31.332031 -56.222656 29.566406 -52.789062 28.890625 -48.34375 Z M 59.953125 -48.34375 "/></g></g></g><g fill="#ffffff" fill-opacity="1"><g transform="translate(728.335734, 455.249997)"><g/></g></g><g fill="#ffffff" fill-opacity="1"><g transform="translate(759.118741, 455.249997)"><g><path d="M 76.65625 -69.6875 C 74.8125 -73.070312 72.171875 -75.660156 68.734375 -77.453125 C 65.296875 -79.242188 61.253906 -80.140625 56.609375 -80.140625 C 48.578125 -80.140625 42.140625 -77.5 37.296875 -72.21875 C 32.460938 -66.945312 30.046875 -59.90625 30.046875 -51.09375 C 30.046875 -41.707031 32.585938 -34.375 37.671875 -29.09375 C 42.753906 -23.820312 49.75 -21.1875 58.65625 -21.1875 C 64.75 -21.1875 69.898438 -22.734375 74.109375 -25.828125 C 78.316406 -28.929688 81.390625 -33.390625 83.328125 -39.203125 L 51.828125 -39.203125 L 51.828125 -57.484375 L 105.828125 -57.484375 L 105.828125 -34.40625 C 103.992188 -28.207031 100.875 -22.445312 96.46875 -17.125 C 92.0625 -11.800781 86.46875 -7.492188 79.6875 -4.203125 C 72.914062 -0.921875 65.273438 0.71875 56.765625 0.71875 C 46.703125 0.71875 37.722656 -1.476562 29.828125 -5.875 C 21.941406 -10.28125 15.796875 -16.398438 11.390625 -24.234375 C 6.992188 -32.078125 4.796875 -41.03125 4.796875 -51.09375 C 4.796875 -61.164062 6.992188 -70.144531 11.390625 -78.03125 C 15.796875 -85.914062 21.914062 -92.0625 29.75 -96.46875 C 37.59375 -100.875 46.546875 -103.078125 56.609375 -103.078125 C 68.804688 -103.078125 79.085938 -100.125 87.453125 -94.21875 C 95.828125 -88.3125 101.375 -80.132812 104.09375 -69.6875 Z M 76.65625 -69.6875 "/></g></g></g><g fill="#ffffff" fill-opacity="1"><g transform="translate(869.732013, 455.249997)"><g><path d="M 33.828125 -67.5 C 36.734375 -71.957031 40.363281 -75.46875 44.71875 -78.03125 C 49.070312 -80.59375 53.910156 -81.875 59.234375 -81.875 L 59.234375 -55.59375 L 52.40625 -55.59375 C 46.207031 -55.59375 41.5625 -54.257812 38.46875 -51.59375 C 35.375 -48.9375 33.828125 -44.269531 33.828125 -37.59375 L 33.828125 0 L 9 0 L 9 -81 L 33.828125 -81 Z M 33.828125 -67.5 "/></g></g></g><g fill="#ffffff" fill-opacity="1"><g transform="translate(931.86052, 455.249997)"><g><path d="M 45.875 1.15625 C 37.9375 1.15625 30.796875 -0.535156 24.453125 -3.921875 C 18.117188 -7.304688 13.132812 -12.144531 9.5 -18.4375 C 5.875 -24.726562 4.0625 -32.082031 4.0625 -40.5 C 4.0625 -48.820312 5.898438 -56.148438 9.578125 -62.484375 C 13.253906 -68.828125 18.285156 -73.691406 24.671875 -77.078125 C 31.066406 -80.472656 38.234375 -82.171875 46.171875 -82.171875 C 54.097656 -82.171875 61.253906 -80.472656 67.640625 -77.078125 C 74.035156 -73.691406 79.070312 -68.828125 82.75 -62.484375 C 86.425781 -56.148438 88.265625 -48.820312 88.265625 -40.5 C 88.265625 -32.175781 86.398438 -24.84375 82.671875 -18.5 C 78.953125 -12.164062 73.875 -7.304688 67.4375 -3.921875 C 61 -0.535156 53.8125 1.15625 45.875 1.15625 Z M 45.875 -20.328125 C 50.613281 -20.328125 54.648438 -22.066406 57.984375 -25.546875 C 61.328125 -29.035156 63 -34.019531 63 -40.5 C 63 -46.988281 61.378906 -51.972656 58.140625 -55.453125 C 54.898438 -58.941406 50.910156 -60.6875 46.171875 -60.6875 C 41.328125 -60.6875 37.304688 -58.96875 34.109375 -55.53125 C 30.921875 -52.09375 29.328125 -47.082031 29.328125 -40.5 C 29.328125 -34.019531 30.898438 -29.035156 34.046875 -25.546875 C 37.191406 -22.066406 41.132812 -20.328125 45.875 -20.328125 Z M 45.875 -20.328125 "/></g></g></g><g fill="#ffffff" fill-opacity="1"><g transform="translate(1024.327483, 455.249997)"><g><path d="M 88.984375 -81 L 88.984375 0 L 64.171875 0 L 64.171875 -11.03125 C 61.648438 -7.445312 58.234375 -4.566406 53.921875 -2.390625 C 49.617188 -0.210938 44.851562 0.875 39.625 0.875 C 33.4375 0.875 27.96875 -0.503906 23.21875 -3.265625 C 18.476562 -6.023438 14.800781 -10.015625 12.1875 -15.234375 C 9.582031 -20.460938 8.28125 -26.613281 8.28125 -33.6875 L 8.28125 -81 L 32.953125 -81 L 32.953125 -37.015625 C 32.953125 -31.597656 34.351562 -27.390625 37.15625 -24.390625 C 39.96875 -21.390625 43.742188 -19.890625 48.484375 -19.890625 C 53.328125 -19.890625 57.148438 -21.390625 59.953125 -24.390625 C 62.765625 -27.390625 64.171875 -31.597656 64.171875 -37.015625 L 64.171875 -81 Z M 88.984375 -81 "/></g></g></g><g fill="#ffffff" fill-opacity="1"><g transform="translate(1122.165365, 455.249997)"><g><path d="M 33.828125 -69.53125 C 36.242188 -73.3125 39.582031 -76.363281 43.84375 -78.6875 C 48.101562 -81.007812 53.085938 -82.171875 58.796875 -82.171875 C 65.472656 -82.171875 71.519531 -80.472656 76.9375 -77.078125 C 82.363281 -73.691406 86.644531 -68.851562 89.78125 -62.5625 C 92.925781 -56.28125 94.5 -48.972656 94.5 -40.640625 C 94.5 -32.316406 92.925781 -24.984375 89.78125 -18.640625 C 86.644531 -12.304688 82.363281 -7.421875 76.9375 -3.984375 C 71.519531 -0.554688 65.472656 1.15625 58.796875 1.15625 C 53.179688 1.15625 48.21875 -0.00390625 43.90625 -2.328125 C 39.601562 -4.648438 36.242188 -7.648438 33.828125 -11.328125 L 33.828125 38.609375 L 9 38.609375 L 9 -81 L 33.828125 -81 Z M 69.25 -40.640625 C 69.25 -46.835938 67.53125 -51.703125 64.09375 -55.234375 C 60.65625 -58.765625 56.421875 -60.53125 51.390625 -60.53125 C 46.453125 -60.53125 42.265625 -58.738281 38.828125 -55.15625 C 35.398438 -51.582031 33.6875 -46.695312 33.6875 -40.5 C 33.6875 -34.3125 35.398438 -29.425781 38.828125 -25.84375 C 42.265625 -22.257812 46.453125 -20.46875 51.390625 -20.46875 C 56.328125 -20.46875 60.535156 -22.28125 64.015625 -25.90625 C 67.503906 -29.539062 69.25 -34.453125 69.25 -40.640625 Z M 69.25 -40.640625 "/></g></g></g></svg>