<svg xmlns="http://www.w3.org/2000/svg" xmlns:xlink="http://www.w3.org/1999/xlink" width="1920" zoomAndPan="magnify" viewBox="0 0 1440 809.999993" height="1080" preserveAspectRatio="xMidYMid meet" version="1.0"><defs><clipPath id="1a87fdbc15"><path d="M 651 754 L 1024 754 L 1024 789.339844 L 651 789.339844 Z M 651 754 " clip-rule="nonzero"/></clipPath></defs><g clip-path="url(#1a87fdbc15)"><path fill="#ffffff" d="M 1006.664062 789.398438 L 669.257812 789.398438 C 659.695312 789.398438 651.945312 781.648438 651.945312 772.085938 C 651.945312 762.523438 659.695312 754.773438 669.257812 754.773438 L 1006.667969 754.773438 C 1016.230469 754.773438 1023.980469 762.523438 1023.980469 772.085938 C 1023.980469 781.644531 1016.226562 789.398438 1006.664062 789.398438 Z M 1006.664062 789.398438 " fill-opacity="1" fill-rule="nonzero"/></g><path fill="#ffffff" d="M 982.402344 110.34375 L 859.457031 24.246094 C 855.691406 21.617188 851.042969 20.585938 846.515625 21.378906 C 842 22.175781 837.972656 24.738281 835.339844 28.496094 L 748.429688 152.613281 L 899.75 258.5625 L 986.660156 134.449219 C 992.140625 126.617188 990.234375 115.820312 982.402344 110.34375 Z M 982.402344 110.34375 " fill-opacity="1" fill-rule="nonzero"/><path fill="#ffffff" d="M 728.585938 180.96875 L 434.195312 601.402344 C 425.117188 614.363281 420.078125 629.429688 419.621094 644.976562 L 416.140625 762.988281 C 415.96875 768.8125 418.734375 774.335938 423.515625 777.675781 C 426.46875 779.746094 429.949219 780.808594 433.441406 780.808594 C 435.609375 780.808594 437.78125 780.410156 439.839844 779.585938 L 549.539062 735.949219 C 563.996094 730.199219 576.4375 720.304688 585.507812 707.347656 L 879.894531 286.921875 Z M 728.585938 180.96875 " fill-opacity="1" fill-rule="nonzero"/></svg>