<svg xmlns="http://www.w3.org/2000/svg" xmlns:xlink="http://www.w3.org/1999/xlink" width="500" zoomAndPan="magnify" viewBox="0 0 375 374.999991" height="500" preserveAspectRatio="xMidYMid meet" version="1.0"><defs><clipPath id="edecf7d280"><path d="M 21.414062 29 L 353 29 L 353 346.675781 L 21.414062 346.675781 Z M 21.414062 29 " clip-rule="nonzero"/></clipPath></defs><g clip-path="url(#edecf7d280)"><path fill="#000000" d="M 352.285156 218.695312 C 352.285156 210.414062 348.992188 202.695312 343.324219 196.992188 C 349.761719 189.949219 353.03125 180.496094 352.136719 170.683594 C 350.535156 153.167969 334.738281 139.445312 316.195312 139.445312 L 231.050781 139.445312 C 235.242188 126.640625 241.996094 103.171875 241.996094 84.320312 C 241.996094 54.429688 216.585938 29.199219 200.636719 29.199219 C 186.3125 29.199219 176.070312 37.246094 175.640625 37.589844 C 174.003906 38.914062 173.066406 40.882812 173.066406 42.976562 L 173.066406 89.695312 L 133.359375 175.699219 L 131.707031 176.527344 L 131.707031 173.894531 C 131.707031 170.09375 128.617188 167.003906 124.8125 167.003906 L 55.882812 167.003906 C 36.882812 167.003906 21.414062 182.46875 21.414062 201.457031 L 21.414062 311.703125 C 21.414062 330.691406 36.882812 346.15625 55.882812 346.15625 L 97.238281 346.15625 C 112.15625 346.15625 124.882812 336.644531 129.691406 323.390625 C 141.164062 329.285156 156.605469 332.386719 166.183594 332.386719 L 292.730469 332.386719 C 307.742188 332.386719 320.867188 322.257812 323.957031 308.3125 C 325.542969 301.132812 324.617188 293.898438 321.472656 287.613281 C 331.648438 282.488281 338.5 272 338.5 260.039062 C 338.5 255.160156 337.382812 250.488281 335.261719 246.257812 C 345.433594 241.132812 352.285156 230.644531 352.285156 218.695312 Z M 97.238281 332.375 L 55.882812 332.375 C 44.464844 332.375 35.203125 323.097656 35.203125 311.703125 L 35.203125 201.457031 C 35.203125 190.058594 44.480469 180.785156 55.882812 180.785156 L 55.882812 180.855469 L 117.890625 180.855469 L 117.890625 187.746094 C 117.890625 187.785156 117.917969 187.8125 117.917969 187.855469 L 117.917969 311.703125 C 117.917969 323.097656 108.628906 332.375 97.238281 332.375 Z M 323.199219 235.714844 C 320.535156 236.019531 318.289062 237.824219 317.449219 240.375 C 316.609375 242.910156 317.296875 245.71875 319.253906 247.554688 C 322.769531 250.875 324.699219 255.3125 324.699219 260.050781 C 324.699219 268.734375 318.136719 276.050781 309.425781 277.042969 C 306.765625 277.347656 304.515625 279.152344 303.675781 281.703125 C 302.835938 284.238281 303.523438 287.050781 305.480469 288.882812 C 310.03125 293.167969 311.851562 299.175781 310.488281 305.335938 C 308.789062 313.011719 301.320312 318.59375 292.714844 318.59375 L 166.171875 318.59375 C 155.929688 318.59375 139.441406 314.167969 131.707031 308.421875 L 131.707031 191.976562 L 141.644531 187.015625 C 143.039062 186.3125 144.15625 185.152344 144.816406 183.734375 L 186.175781 94.160156 C 186.589844 93.265625 186.808594 92.273438 186.808594 91.28125 L 186.808594 46.796875 C 189.675781 45.210938 194.652344 43.046875 200.597656 43.046875 C 208.152344 43.046875 228.167969 61.832031 228.167969 84.390625 C 228.167969 108.628906 214.976562 143.605469 214.835938 143.949219 C 214.039062 146.058594 214.3125 148.441406 215.609375 150.300781 C 216.90625 152.164062 219.015625 153.28125 221.289062 153.28125 L 316.152344 153.28125 C 327.648438 153.28125 337.410156 161.492188 338.375 171.992188 C 339.105469 179.847656 335.355469 187.316406 328.574219 191.492188 C 326.449219 192.789062 325.210938 195.144531 325.308594 197.625 C 325.390625 200.105469 326.824219 202.339844 329.042969 203.484375 C 334.859375 206.460938 338.472656 212.300781 338.472656 218.722656 C 338.457031 227.40625 331.898438 234.722656 323.199219 235.714844 Z M 323.199219 235.714844 " fill-opacity="1" fill-rule="nonzero"/></g></svg>