<svg xmlns="http://www.w3.org/2000/svg" xmlns:xlink="http://www.w3.org/1999/xlink" width="500" zoomAndPan="magnify" viewBox="0 0 375 374.999991" height="500" preserveAspectRatio="xMidYMid meet" version="1.0"><defs><clipPath id="c53c7ad581"><path d="M 22 29 L 353.371094 29 L 353.371094 346.523438 L 22 346.523438 Z M 22 29 " clip-rule="nonzero"/></clipPath></defs><g clip-path="url(#c53c7ad581)"><path fill="#000000" d="M 22.5 156.503906 C 22.5 164.785156 25.796875 172.503906 31.460938 178.207031 C 25.023438 185.25 21.757812 194.703125 22.652344 204.515625 C 24.25 222.03125 40.050781 235.757812 58.59375 235.757812 L 143.738281 235.757812 C 139.546875 248.558594 132.792969 272.027344 132.792969 290.878906 C 132.792969 320.769531 158.199219 346.003906 174.148438 346.003906 C 188.472656 346.003906 198.71875 337.953125 199.144531 337.609375 C 200.785156 336.285156 201.722656 334.316406 201.722656 332.222656 L 201.722656 285.503906 L 241.425781 199.5 L 243.082031 198.671875 L 243.082031 201.304688 C 243.082031 205.109375 246.167969 208.195312 249.976562 208.195312 L 318.90625 208.195312 C 337.902344 208.195312 353.371094 192.734375 353.371094 173.742188 L 353.371094 63.496094 C 353.371094 44.507812 337.902344 29.046875 318.90625 29.046875 L 277.546875 29.046875 C 262.628906 29.046875 249.90625 38.554688 245.09375 51.8125 C 233.625 45.914062 218.183594 42.8125 208.601562 42.8125 L 82.058594 42.8125 C 67.042969 42.8125 53.917969 52.941406 50.832031 66.886719 C 49.246094 74.066406 50.167969 81.300781 53.3125 87.585938 C 43.140625 92.710938 36.285156 103.199219 36.285156 115.160156 C 36.285156 120.039062 37.402344 124.710938 39.527344 128.941406 C 29.351562 134.066406 22.5 144.554688 22.5 156.503906 Z M 277.546875 42.824219 L 318.90625 42.824219 C 330.320312 42.824219 339.585938 52.101562 339.585938 63.496094 L 339.585938 173.742188 C 339.585938 185.140625 330.308594 194.414062 318.90625 194.414062 L 318.90625 194.34375 L 256.894531 194.34375 L 256.894531 187.453125 C 256.894531 187.414062 256.867188 187.386719 256.867188 187.34375 L 256.867188 63.496094 C 256.867188 52.101562 266.160156 42.824219 277.546875 42.824219 Z M 51.589844 139.484375 C 54.25 139.179688 56.496094 137.375 57.339844 134.824219 C 58.179688 132.289062 57.492188 129.480469 55.53125 127.644531 C 52.015625 124.324219 50.085938 119.886719 50.085938 115.148438 C 50.085938 106.464844 56.648438 99.148438 65.363281 98.15625 C 68.023438 97.851562 70.269531 96.046875 71.109375 93.496094 C 71.953125 90.960938 71.261719 88.152344 69.304688 86.316406 C 64.753906 82.03125 62.9375 76.023438 64.300781 69.863281 C 65.996094 62.1875 73.46875 56.605469 82.070312 56.605469 L 208.617188 56.605469 C 218.859375 56.605469 235.347656 61.03125 243.082031 66.777344 L 243.082031 183.222656 L 233.140625 188.183594 C 231.75 188.886719 230.632812 190.046875 229.972656 191.464844 L 188.613281 281.039062 C 188.199219 281.9375 187.976562 282.929688 187.976562 283.921875 L 187.976562 328.40625 C 185.109375 329.988281 180.132812 332.152344 174.191406 332.152344 C 166.636719 332.152344 146.617188 313.371094 146.617188 290.808594 C 146.617188 266.570312 159.8125 231.59375 159.949219 231.25 C 160.75 229.140625 160.472656 226.757812 159.179688 224.898438 C 157.882812 223.035156 155.773438 221.921875 153.5 221.921875 L 58.632812 221.921875 C 47.136719 221.921875 37.375 213.707031 36.410156 203.207031 C 35.679688 195.351562 39.429688 187.882812 46.214844 183.707031 C 48.335938 182.410156 49.578125 180.054688 49.480469 177.574219 C 49.398438 175.09375 47.964844 172.859375 45.746094 171.71875 C 39.925781 168.742188 36.316406 162.898438 36.316406 156.476562 C 36.328125 147.792969 42.890625 140.476562 51.589844 139.484375 Z M 51.589844 139.484375 " fill-opacity="1" fill-rule="nonzero"/></g></svg>