<svg xmlns="http://www.w3.org/2000/svg" xmlns:xlink="http://www.w3.org/1999/xlink" width="1920" zoomAndPan="magnify" viewBox="0 0 1440 809.999993" height="1080" preserveAspectRatio="xMidYMid meet" version="1.0"><defs><filter x="0%" y="0%" width="100%" height="100%" id="e2dfa238c6"><feColorMatrix values="0 0 0 0 1 0 0 0 0 1 0 0 0 0 1 0 0 0 1 0" color-interpolation-filters="sRGB"/></filter><g/><mask id="c9c677541c"><g filter="url(#e2dfa238c6)"><rect x="-144" width="1728" fill="#000000" y="-80.999999" height="971.999992" fill-opacity="0.74"/></g></mask><clipPath id="3c93430afc"><path d="M 0.640625 0.683594 L 1237 0.683594 L 1237 697.355469 L 0.640625 697.355469 Z M 0.640625 0.683594 " clip-rule="nonzero"/></clipPath><clipPath id="3a0b7c9770"><rect x="0" width="1238" y="0" height="699"/></clipPath><clipPath id="592a6381ff"><path d="M 81 35.851562 L 1318 35.851562 L 1318 732.523438 L 81 732.523438 Z M 81 35.851562 " clip-rule="nonzero"/></clipPath></defs><g mask="url(#c9c677541c)"><g transform="matrix(1, 0, 0, 1, 122, 76)"><g clip-path="url(#3a0b7c9770)"><g clip-path="url(#3c93430afc)"><path fill="#9374dd" d="M 1087.261719 697.753906 L 150.1875 697.753906 C 67.597656 697.753906 0.710938 630.863281 0.710938 548.277344 L 0.710938 150.160156 C 0.710938 67.574219 67.597656 0.683594 150.1875 0.683594 L 1236.738281 0.683594 L 1236.738281 548.277344 C 1236.738281 630.863281 1169.847656 697.753906 1087.261719 697.753906 Z M 1087.261719 697.753906 " fill-opacity="1" fill-rule="nonzero"/></g></g></g></g><g clip-path="url(#592a6381ff)"><path fill="#a0d0dd" d="M 1167.777344 732.925781 L 230.703125 732.925781 C 148.117188 732.925781 81.226562 666.035156 81.226562 583.445312 L 81.226562 185.332031 C 81.226562 102.742188 148.117188 35.851562 230.703125 35.851562 L 1317.253906 35.851562 L 1317.253906 583.445312 C 1317.253906 666.035156 1250.367188 732.925781 1167.777344 732.925781 Z M 1167.777344 732.925781 " fill-opacity="1" fill-rule="nonzero"/></g><path fill="#ffffff" d="M 217.441406 189.296875 C 220.183594 186.015625 224.039062 184.003906 228.292969 183.625 C 228.773438 183.582031 229.25 183.5625 229.722656 183.5625 C 236.265625 183.5625 241.871094 187.425781 244.351562 193.101562 L 250.730469 192.535156 C 252.152344 186.707031 256.789062 182.035156 262.804688 180.703125 C 254.878906 173.011719 244.070312 168.265625 232.152344 168.265625 C 212.878906 168.265625 196.511719 180.648438 190.542969 197.890625 L 214.175781 195.785156 C 214.746094 193.429688 215.839844 191.210938 217.441406 189.296875 Z M 217.441406 189.296875 " fill-opacity="1" fill-rule="nonzero"/><path fill="#ffffff" d="M 266.253906 212.308594 C 257.914062 212.308594 251.066406 206.039062 250.328125 197.730469 C 250.3125 197.5625 250.316406 197.402344 250.308594 197.238281 L 245.582031 197.660156 C 245.601562 197.820312 245.632812 197.980469 245.648438 198.144531 C 246.429688 206.929688 239.917969 214.714844 231.132812 215.5 C 230.648438 215.542969 230.175781 215.5625 229.703125 215.5625 C 229.703125 215.5625 229.703125 215.5625 229.699219 215.5625 C 221.363281 215.5625 214.515625 209.292969 213.777344 200.980469 C 213.761719 200.816406 213.765625 200.652344 213.757812 200.492188 L 189.183594 202.675781 C 188.492188 205.777344 188.117188 208.992188 188.117188 212.300781 C 188.117188 236.621094 207.828125 256.335938 232.152344 256.335938 C 256.46875 256.335938 276.1875 236.621094 276.1875 212.300781 C 276.1875 211.175781 276.128906 210.066406 276.046875 208.960938 C 273.652344 210.824219 270.777344 211.972656 267.679688 212.246094 C 267.203125 212.289062 266.726562 212.308594 266.253906 212.308594 Z M 213.222656 221.539062 C 230.449219 231.8125 257.425781 225.910156 257.425781 225.910156 C 231.675781 257.269531 213.222656 221.539062 213.222656 221.539062 Z M 213.222656 221.539062 " fill-opacity="1" fill-rule="nonzero"/><path fill="#ffffff" d="M 152.734375 439.902344 C 153.117188 448.292969 160.046875 454.839844 168.359375 454.839844 C 168.605469 454.839844 168.847656 454.832031 169.09375 454.820312 C 177.730469 454.421875 184.410156 447.101562 184.011719 438.460938 C 181.925781 393.089844 183.226562 362.136719 185.722656 341.109375 L 190.28125 341.109375 C 187.789062 361.714844 186.40625 392.503906 188.507812 438.253906 C 188.851562 445.699219 185.078125 452.382812 179.21875 456.144531 L 179.21875 608.265625 C 179.21875 621.632812 190.054688 632.460938 203.417969 632.460938 C 216.777344 632.460938 227.613281 621.632812 227.613281 608.265625 L 227.613281 431.589844 L 236.683594 431.589844 L 236.683594 608.265625 C 236.683594 621.632812 247.519531 632.460938 260.886719 632.460938 C 274.246094 632.460938 285.082031 621.632812 285.082031 608.265625 L 285.082031 341.109375 L 289.582031 341.109375 L 289.582031 453.484375 C 291.3125 454.25 293.203125 454.730469 295.207031 454.820312 C 295.453125 454.832031 295.695312 454.839844 295.9375 454.839844 C 304.253906 454.839844 311.179688 448.292969 311.566406 439.902344 C 315.855469 346.679688 307.738281 292.515625 286.746094 274.316406 C 281.273438 269.570312 275.9375 268.027344 272.011719 267.644531 C 271.339844 267.550781 270.65625 267.488281 269.957031 267.488281 L 194.34375 267.488281 C 193.621094 267.488281 192.917969 267.554688 192.222656 267.652344 C 188.308594 268.046875 182.996094 269.597656 177.550781 274.316406 C 166.550781 283.859375 159.089844 303.296875 155.09375 333.039062 C 151.464844 360.046875 150.691406 395.542969 152.734375 439.902344 Z M 152.734375 439.902344 " fill-opacity="1" fill-rule="nonzero"/><path fill="#ffffff" d="M 265.246094 184.855469 C 258.921875 185.417969 254.25 191.003906 254.8125 197.328125 C 255.375 203.65625 260.960938 208.324219 267.285156 207.761719 C 273.609375 207.199219 278.28125 201.617188 277.71875 195.289062 C 277.152344 188.964844 271.570312 184.292969 265.246094 184.855469 Z M 265.246094 184.855469 " fill-opacity="1" fill-rule="nonzero"/><path fill="#ffffff" d="M 228.695312 188.109375 C 222.371094 188.671875 217.695312 194.257812 218.257812 200.582031 C 218.824219 206.90625 224.40625 211.578125 230.730469 211.015625 C 237.054688 210.453125 241.726562 204.867188 241.164062 198.542969 C 240.601562 192.21875 235.019531 187.546875 228.695312 188.109375 Z M 228.695312 188.109375 " fill-opacity="1" fill-rule="nonzero"/><path fill="#ffffff" d="M 460.246094 276.25 C 457.839844 271.082031 452.617188 267.488281 446.535156 267.488281 L 370.925781 267.488281 C 370.203125 267.488281 369.5 267.554688 368.804688 267.652344 C 364.886719 268.046875 359.578125 269.597656 354.132812 274.316406 C 343.132812 283.855469 335.671875 303.296875 331.675781 333.039062 C 328.046875 360.046875 327.273438 395.542969 329.3125 439.902344 C 329.699219 448.292969 336.625 454.839844 344.941406 454.839844 C 345.183594 454.839844 345.429688 454.832031 345.675781 454.820312 C 354.3125 454.421875 360.992188 447.101562 360.59375 438.460938 C 358.269531 387.953125 360.144531 355.308594 363.191406 334.34375 L 367.734375 334.53125 C 364.71875 354.964844 362.75 387.378906 365.089844 438.253906 C 365.433594 445.699219 361.660156 452.382812 355.796875 456.144531 L 355.796875 608.265625 C 355.796875 621.632812 366.636719 632.460938 380 632.460938 C 393.359375 632.460938 404.195312 621.632812 404.195312 608.265625 L 404.195312 431.589844 L 413.265625 431.589844 L 413.265625 608.265625 C 413.265625 621.632812 424.101562 632.460938 437.464844 632.460938 C 450.824219 632.460938 461.664062 621.632812 461.664062 608.265625 L 461.664062 326.144531 C 478.664062 343.4375 502.582031 363.421875 531.703125 376.421875 C 532.03125 364.039062 532.714844 352.722656 533.757812 342.445312 C 493.992188 320.828125 466.332031 284.65625 460.246094 276.25 Z M 460.246094 276.25 " fill-opacity="1" fill-rule="nonzero"/><path fill="#ffffff" d="M 408.734375 168.265625 C 384.410156 168.265625 364.699219 187.980469 364.699219 212.300781 C 364.699219 236.621094 384.410156 256.335938 408.734375 256.335938 C 433.050781 256.335938 452.769531 236.621094 452.769531 212.300781 C 452.769531 187.980469 433.050781 168.265625 408.734375 168.265625 Z M 389.804688 221.539062 C 407.03125 231.8125 434.007812 225.910156 434.007812 225.910156 C 408.257812 257.269531 389.804688 221.539062 389.804688 221.539062 Z M 389.804688 221.539062 " fill-opacity="1" fill-rule="nonzero"/><path fill="#ffffff" d="M 578.007812 267.644531 C 574.085938 268.027344 568.753906 269.570312 563.28125 274.316406 C 542.292969 292.519531 534.171875 346.679688 538.464844 439.902344 C 538.851562 448.292969 545.773438 454.839844 554.09375 454.839844 C 554.332031 454.839844 554.578125 454.832031 554.824219 454.820312 C 556.828125 454.730469 558.71875 454.25 560.449219 453.480469 L 560.449219 341.109375 L 564.949219 341.109375 L 564.949219 608.265625 C 564.949219 621.632812 575.785156 632.460938 589.144531 632.460938 C 602.507812 632.460938 613.347656 621.632812 613.347656 608.265625 L 613.347656 431.589844 L 622.417969 431.589844 L 622.417969 608.265625 C 622.417969 621.632812 633.253906 632.460938 646.613281 632.460938 C 659.976562 632.460938 670.8125 621.632812 670.8125 608.265625 L 670.8125 456.144531 C 664.953125 452.382812 661.179688 445.699219 661.519531 438.253906 C 663.625 392.503906 662.242188 361.714844 659.75 341.109375 L 664.308594 341.109375 C 666.804688 362.136719 668.105469 393.089844 666.019531 438.460938 C 665.621094 447.097656 672.300781 454.421875 680.9375 454.820312 C 681.183594 454.832031 681.425781 454.839844 681.667969 454.839844 C 689.984375 454.839844 696.910156 448.292969 697.296875 439.902344 C 699.339844 395.542969 698.566406 360.046875 694.9375 333.039062 C 690.941406 303.296875 683.480469 283.855469 672.476562 274.316406 C 667.035156 269.59375 661.722656 268.046875 657.808594 267.652344 C 657.113281 267.554688 656.410156 267.488281 655.6875 267.488281 L 580.074219 267.488281 C 579.371094 267.488281 578.6875 267.550781 578.007812 267.644531 Z M 578.007812 267.644531 " fill-opacity="1" fill-rule="nonzero"/><path fill="#ffffff" d="M 595.507812 174.375 C 582.542969 182.039062 573.84375 196.148438 573.84375 212.300781 C 573.84375 236.621094 593.558594 256.335938 617.878906 256.335938 C 642.203125 256.335938 661.914062 236.621094 661.914062 212.300781 C 661.914062 194.578125 651.4375 179.308594 636.347656 172.324219 C 635.644531 167.414062 636.945312 163.34375 642.871094 162.816406 C 660.9375 161.210938 631.34375 154.859375 619.421875 164.675781 C 615.792969 159.808594 614.828125 154.671875 620.886719 150.578125 C 642.078125 136.257812 592.644531 152.300781 595.507812 174.375 Z M 592.605469 225.910156 C 592.605469 225.910156 619.582031 231.8125 636.808594 221.539062 C 636.808594 221.539062 618.355469 257.269531 592.605469 225.910156 Z M 592.605469 225.910156 " fill-opacity="1" fill-rule="nonzero"/><g fill="#ffffff" fill-opacity="1"><g transform="translate(869.239629, 357.020655)"><g><path d="M 58.25 -94.859375 L 58.25 -24.765625 C 58.25 -16.960938 55.84375 -10.722656 51.03125 -6.046875 C 46.226562 -1.378906 39.878906 0.953125 31.984375 0.953125 C 23.992188 0.953125 17.59375 -1.425781 12.78125 -6.1875 C 7.976562 -10.957031 5.578125 -17.46875 5.578125 -25.71875 L 17.96875 -25.71875 C 18.050781 -21.09375 19.25 -17.328125 21.5625 -14.421875 C 23.882812 -11.523438 27.359375 -10.078125 31.984375 -10.078125 C 36.609375 -10.078125 40.054688 -11.457031 42.328125 -14.21875 C 44.597656 -16.988281 45.734375 -20.503906 45.734375 -24.765625 L 45.734375 -94.859375 Z M 58.25 -94.859375 "/></g></g></g><g fill="#ffffff" fill-opacity="1"><g transform="translate(941.366518, 357.020655)"><g><path d="M 43 1.21875 C 36.019531 1.21875 29.691406 -0.363281 24.015625 -3.53125 C 18.347656 -6.707031 13.90625 -11.222656 10.6875 -17.078125 C 7.46875 -22.929688 5.859375 -29.710938 5.859375 -37.421875 C 5.859375 -45.046875 7.507812 -51.78125 10.8125 -57.625 C 14.125 -63.476562 18.640625 -67.96875 24.359375 -71.09375 C 30.078125 -74.226562 36.472656 -75.796875 43.546875 -75.796875 C 50.628906 -75.796875 57.023438 -74.226562 62.734375 -71.09375 C 68.453125 -67.96875 72.96875 -63.503906 76.28125 -57.703125 C 79.59375 -51.898438 81.25 -45.140625 81.25 -37.421875 C 81.25 -29.710938 79.546875 -22.929688 76.140625 -17.078125 C 72.742188 -11.222656 68.140625 -6.707031 62.328125 -3.53125 C 56.523438 -0.363281 50.082031 1.21875 43 1.21875 Z M 43 -9.65625 C 47.445312 -9.65625 51.617188 -10.695312 55.515625 -12.78125 C 59.421875 -14.875 62.578125 -18.003906 64.984375 -22.171875 C 67.390625 -26.347656 68.59375 -31.429688 68.59375 -37.421875 C 68.59375 -43.410156 67.410156 -48.488281 65.046875 -52.65625 C 62.691406 -56.832031 59.609375 -59.941406 55.796875 -61.984375 C 51.984375 -64.023438 47.851562 -65.046875 43.40625 -65.046875 C 38.875 -65.046875 34.722656 -64.023438 30.953125 -61.984375 C 27.191406 -59.941406 24.175781 -56.832031 21.90625 -52.65625 C 19.644531 -48.488281 18.515625 -43.410156 18.515625 -37.421875 C 18.515625 -31.347656 19.625 -26.222656 21.84375 -22.046875 C 24.0625 -17.867188 27.03125 -14.757812 30.75 -12.71875 C 34.476562 -10.675781 38.5625 -9.65625 43 -9.65625 Z M 43 -9.65625 "/></g></g></g><g fill="#ffffff" fill-opacity="1"><g transform="translate(1028.463154, 357.020655)"><g><path d="M 16.875 -86.6875 C 14.519531 -86.6875 12.523438 -87.503906 10.890625 -89.140625 C 9.253906 -90.773438 8.4375 -92.769531 8.4375 -95.125 C 8.4375 -97.488281 9.253906 -99.484375 10.890625 -101.109375 C 12.523438 -102.742188 14.519531 -103.5625 16.875 -103.5625 C 19.144531 -103.5625 21.070312 -102.742188 22.65625 -101.109375 C 24.25 -99.484375 25.046875 -97.488281 25.046875 -95.125 C 25.046875 -92.769531 24.25 -90.773438 22.65625 -89.140625 C 21.070312 -87.503906 19.144531 -86.6875 16.875 -86.6875 Z M 22.859375 -74.578125 L 22.859375 0 L 10.484375 0 L 10.484375 -74.578125 Z M 22.859375 -74.578125 "/></g></g></g><g fill="#ffffff" fill-opacity="1"><g transform="translate(1061.940925, 357.020655)"><g><path d="M 46.8125 -75.9375 C 55.882812 -75.9375 63.234375 -73.191406 68.859375 -67.703125 C 74.484375 -62.210938 77.296875 -54.296875 77.296875 -43.953125 L 77.296875 0 L 65.046875 0 L 65.046875 -42.1875 C 65.046875 -49.625 63.1875 -55.316406 59.46875 -59.265625 C 55.75 -63.210938 50.671875 -65.1875 44.234375 -65.1875 C 37.703125 -65.1875 32.503906 -63.144531 28.640625 -59.0625 C 24.785156 -54.976562 22.859375 -49.035156 22.859375 -41.234375 L 22.859375 0 L 10.484375 0 L 10.484375 -74.578125 L 22.859375 -74.578125 L 22.859375 -63.96875 C 25.304688 -67.78125 28.640625 -70.726562 32.859375 -72.8125 C 37.078125 -74.894531 41.726562 -75.9375 46.8125 -75.9375 Z M 46.8125 -75.9375 "/></g></g></g><g fill="#ffffff" fill-opacity="1"><g transform="translate(797.706327, 520.343065)"><g><path d="M 82.34375 -67.359375 C 79.707031 -72.898438 75.894531 -77.1875 70.90625 -80.21875 C 65.914062 -83.257812 60.109375 -84.78125 53.484375 -84.78125 C 46.859375 -84.78125 40.890625 -83.257812 35.578125 -80.21875 C 30.273438 -77.1875 26.101562 -72.832031 23.0625 -67.15625 C 20.03125 -61.488281 18.515625 -54.9375 18.515625 -47.5 C 18.515625 -40.0625 20.03125 -33.53125 23.0625 -27.90625 C 26.101562 -22.28125 30.273438 -17.945312 35.578125 -14.90625 C 40.890625 -11.863281 46.859375 -10.34375 53.484375 -10.34375 C 62.734375 -10.34375 70.351562 -13.109375 76.34375 -18.640625 C 82.332031 -24.179688 85.828125 -31.664062 86.828125 -41.09375 L 49 -41.09375 L 49 -51.171875 L 100.03125 -51.171875 L 100.03125 -41.640625 C 99.300781 -33.835938 96.847656 -26.691406 92.671875 -20.203125 C 88.503906 -13.722656 83.015625 -8.597656 76.203125 -4.828125 C 69.398438 -1.066406 61.828125 0.8125 53.484375 0.8125 C 44.679688 0.8125 36.648438 -1.25 29.390625 -5.375 C 22.140625 -9.5 16.40625 -15.234375 12.1875 -22.578125 C 7.96875 -29.929688 5.859375 -38.238281 5.859375 -47.5 C 5.859375 -56.75 7.96875 -65.070312 12.1875 -72.46875 C 16.40625 -79.863281 22.140625 -85.625 29.390625 -89.75 C 36.648438 -93.882812 44.679688 -95.953125 53.484375 -95.953125 C 63.554688 -95.953125 72.46875 -93.453125 80.21875 -88.453125 C 87.976562 -83.460938 93.628906 -76.429688 97.171875 -67.359375 Z M 82.34375 -67.359375 "/></g></g></g><g fill="#ffffff" fill-opacity="1"><g transform="translate(903.610702, 520.343065)"><g><path d="M 22.859375 -62.46875 C 25.035156 -66.726562 28.144531 -70.035156 32.1875 -72.390625 C 36.226562 -74.753906 41.148438 -75.9375 46.953125 -75.9375 L 46.953125 -63.140625 L 43.6875 -63.140625 C 29.800781 -63.140625 22.859375 -55.613281 22.859375 -40.5625 L 22.859375 0 L 10.484375 0 L 10.484375 -74.578125 L 22.859375 -74.578125 Z M 22.859375 -62.46875 "/></g></g></g><g fill="#ffffff" fill-opacity="1"><g transform="translate(954.371708, 520.343065)"><g><path d="M 43 1.21875 C 36.019531 1.21875 29.691406 -0.363281 24.015625 -3.53125 C 18.347656 -6.707031 13.90625 -11.222656 10.6875 -17.078125 C 7.46875 -22.929688 5.859375 -29.710938 5.859375 -37.421875 C 5.859375 -45.046875 7.507812 -51.78125 10.8125 -57.625 C 14.125 -63.476562 18.640625 -67.96875 24.359375 -71.09375 C 30.078125 -74.226562 36.472656 -75.796875 43.546875 -75.796875 C 50.628906 -75.796875 57.023438 -74.226562 62.734375 -71.09375 C 68.453125 -67.96875 72.96875 -63.503906 76.28125 -57.703125 C 79.59375 -51.898438 81.25 -45.140625 81.25 -37.421875 C 81.25 -29.710938 79.546875 -22.929688 76.140625 -17.078125 C 72.742188 -11.222656 68.140625 -6.707031 62.328125 -3.53125 C 56.523438 -0.363281 50.082031 1.21875 43 1.21875 Z M 43 -9.65625 C 47.445312 -9.65625 51.617188 -10.695312 55.515625 -12.78125 C 59.421875 -14.875 62.578125 -18.003906 64.984375 -22.171875 C 67.390625 -26.347656 68.59375 -31.429688 68.59375 -37.421875 C 68.59375 -43.410156 67.410156 -48.488281 65.046875 -52.65625 C 62.691406 -56.832031 59.609375 -59.941406 55.796875 -61.984375 C 51.984375 -64.023438 47.851562 -65.046875 43.40625 -65.046875 C 38.875 -65.046875 34.722656 -64.023438 30.953125 -61.984375 C 27.191406 -59.941406 24.175781 -56.832031 21.90625 -52.65625 C 19.644531 -48.488281 18.515625 -43.410156 18.515625 -37.421875 C 18.515625 -31.347656 19.625 -26.222656 21.84375 -22.046875 C 24.0625 -17.867188 27.03125 -14.757812 30.75 -12.71875 C 34.476562 -10.675781 38.5625 -9.65625 43 -9.65625 Z M 43 -9.65625 "/></g></g></g><g fill="#ffffff" fill-opacity="1"><g transform="translate(1041.468343, 520.343065)"><g><path d="M 76.625 -74.578125 L 76.625 0 L 64.234375 0 L 64.234375 -11.03125 C 61.878906 -7.21875 58.59375 -4.242188 54.375 -2.109375 C 50.15625 0.0234375 45.503906 1.09375 40.421875 1.09375 C 34.609375 1.09375 29.390625 -0.109375 24.765625 -2.515625 C 20.140625 -4.921875 16.488281 -8.523438 13.8125 -13.328125 C 11.132812 -18.140625 9.796875 -23.992188 9.796875 -30.890625 L 9.796875 -74.578125 L 22.046875 -74.578125 L 22.046875 -32.53125 C 22.046875 -25.175781 23.90625 -19.523438 27.625 -15.578125 C 31.34375 -11.628906 36.425781 -9.65625 42.875 -9.65625 C 49.488281 -9.65625 54.703125 -11.695312 58.515625 -15.78125 C 62.328125 -19.863281 64.234375 -25.804688 64.234375 -33.609375 L 64.234375 -74.578125 Z M 76.625 -74.578125 "/></g></g></g><g fill="#ffffff" fill-opacity="1"><g transform="translate(1128.564979, 520.343065)"><g><path d="M 22.859375 -60.828125 C 25.304688 -65.097656 28.957031 -68.660156 33.8125 -71.515625 C 38.664062 -74.367188 44.316406 -75.796875 50.765625 -75.796875 C 57.390625 -75.796875 63.398438 -74.207031 68.796875 -71.03125 C 74.191406 -67.863281 78.429688 -63.398438 81.515625 -57.640625 C 84.597656 -51.878906 86.140625 -45.1875 86.140625 -37.5625 C 86.140625 -30.03125 84.597656 -23.316406 81.515625 -17.421875 C 78.429688 -11.523438 74.191406 -6.941406 68.796875 -3.671875 C 63.398438 -0.410156 57.390625 1.21875 50.765625 1.21875 C 44.410156 1.21875 38.804688 -0.207031 33.953125 -3.0625 C 29.097656 -5.914062 25.398438 -9.476562 22.859375 -13.75 L 22.859375 35.390625 L 10.484375 35.390625 L 10.484375 -74.578125 L 22.859375 -74.578125 Z M 73.484375 -37.5625 C 73.484375 -43.1875 72.347656 -48.082031 70.078125 -52.25 C 67.816406 -56.425781 64.757812 -59.601562 60.90625 -61.78125 C 57.050781 -63.957031 52.804688 -65.046875 48.171875 -65.046875 C 43.640625 -65.046875 39.441406 -63.9375 35.578125 -61.71875 C 31.722656 -59.5 28.640625 -56.28125 26.328125 -52.0625 C 24.015625 -47.84375 22.859375 -42.960938 22.859375 -37.421875 C 22.859375 -31.796875 24.015625 -26.875 26.328125 -22.65625 C 28.640625 -18.4375 31.722656 -15.210938 35.578125 -12.984375 C 39.441406 -10.765625 43.640625 -9.65625 48.171875 -9.65625 C 52.804688 -9.65625 57.050781 -10.765625 60.90625 -12.984375 C 64.757812 -15.210938 67.816406 -18.4375 70.078125 -22.65625 C 72.347656 -26.875 73.484375 -31.84375 73.484375 -37.5625 Z M 73.484375 -37.5625 "/></g></g></g></svg>