<svg xmlns="http://www.w3.org/2000/svg" xmlns:xlink="http://www.w3.org/1999/xlink" width="500" zoomAndPan="magnify" viewBox="0 0 375 374.999991" height="500" preserveAspectRatio="xMidYMid meet" version="1.0"><defs><clipPath id="a22b94e4df"><path d="M 21.414062 166 L 118 166 L 118 346.675781 L 21.414062 346.675781 Z M 21.414062 166 " clip-rule="nonzero"/></clipPath></defs><g clip-path="url(#a22b94e4df)"><path fill="#85e1e1" d="M 117.835938 339.03125 C 112.0625 343.386719 104.929688 346.003906 97.171875 346.003906 L 55.851562 346.003906 C 36.871094 346.003906 21.414062 330.546875 21.414062 311.566406 L 21.414062 201.375 C 21.414062 182.394531 36.871094 166.9375 55.851562 166.9375 L 117.835938 166.9375 Z M 117.835938 339.03125 " fill-opacity="1" fill-rule="nonzero"/></g><path fill="#85e1e1" d="M 351.996094 218.589844 C 351.996094 230.535156 345.164062 241.015625 334.984375 246.140625 C 337.105469 250.367188 338.21875 255.039062 338.21875 259.914062 C 338.21875 271.871094 331.375 282.351562 321.195312 287.476562 C 324.351562 293.757812 325.273438 300.988281 323.6875 308.164062 C 320.601562 322.117188 307.476562 332.226562 292.476562 332.226562 L 166.042969 332.226562 C 157.007812 332.226562 142.820312 329.378906 131.609375 324.089844 L 131.609375 176.457031 L 133.261719 175.617188 L 172.929688 89.679688 L 172.929688 42.972656 C 172.929688 40.878906 173.882812 38.894531 175.507812 37.585938 C 175.949219 37.253906 186.167969 29.195312 200.480469 29.195312 C 216.414062 29.195312 241.800781 54.417969 241.800781 84.292969 C 241.800781 103.136719 235.050781 126.59375 230.835938 139.390625 L 315.921875 139.390625 C 334.460938 139.390625 350.230469 153.109375 351.84375 170.617188 C 352.738281 180.4375 349.460938 189.871094 343.027344 196.910156 C 348.714844 202.601562 351.996094 210.3125 351.996094 218.589844 Z M 351.996094 218.589844 " fill-opacity="1" fill-rule="nonzero"/></svg>