<svg xmlns="http://www.w3.org/2000/svg" xmlns:xlink="http://www.w3.org/1999/xlink" width="1920" zoomAndPan="magnify" viewBox="0 0 1440 809.999993" height="1080" preserveAspectRatio="xMidYMid meet" version="1.0"><defs><clipPath id="6a6449ab6b"><path d="M 894 50 L 996.515625 50 L 996.515625 153 L 894 153 Z M 894 50 " clip-rule="nonzero"/></clipPath><clipPath id="33e22c4efd"><path d="M 443.765625 50 L 996.515625 50 L 996.515625 760 L 443.765625 760 Z M 443.765625 50 " clip-rule="nonzero"/></clipPath></defs><g clip-path="url(#6a6449ab6b)"><path fill="#b4e0ec" d="M 894.429688 50.632812 L 894.429688 152.675781 L 996.46875 152.675781 Z M 894.429688 50.632812 " fill-opacity="1" fill-rule="nonzero"/></g><g clip-path="url(#33e22c4efd)"><path fill="#b4e0ec" d="M 879.074219 50.632812 L 443.765625 50.632812 L 443.765625 759.597656 L 996.46875 759.597656 L 996.46875 168.03125 L 879.074219 168.03125 Z M 571.578125 383.277344 C 565.449219 377.148438 565.449219 367.210938 571.578125 361.082031 L 583.785156 348.875 C 589.914062 342.746094 589.914062 332.8125 583.785156 326.683594 L 571.578125 314.476562 C 565.449219 308.34375 565.449219 298.410156 571.578125 292.28125 C 577.707031 286.152344 587.640625 286.152344 593.773438 292.28125 L 605.980469 304.488281 C 612.109375 310.617188 622.042969 310.617188 628.171875 304.488281 L 640.378906 292.28125 C 646.507812 286.152344 656.445312 286.152344 662.574219 292.28125 C 668.703125 298.410156 668.703125 308.347656 662.574219 314.476562 L 650.367188 326.683594 C 644.238281 332.8125 644.238281 342.746094 650.367188 348.875 L 662.574219 361.082031 C 668.703125 367.210938 668.703125 377.148438 662.574219 383.277344 C 656.445312 389.40625 646.507812 389.40625 640.378906 383.277344 L 628.171875 371.070312 C 622.042969 364.941406 612.109375 364.941406 605.980469 371.070312 L 593.773438 383.277344 C 587.640625 389.40625 577.707031 389.40625 571.578125 383.277344 Z M 838.804688 543.722656 L 838.019531 543.722656 C 832.796875 543.722656 828.066406 540.902344 825.285156 536.480469 C 802.992188 501.046875 769.480469 484.949219 724.03125 484.949219 C 678.578125 484.949219 645.066406 501.046875 622.777344 536.480469 C 619.992188 540.902344 615.265625 543.722656 610.039062 543.722656 L 609.253906 543.722656 C 596.953125 543.722656 589.992188 529.925781 596.964844 519.789062 C 624.757812 479.390625 671.289062 452.894531 724.03125 452.894531 C 776.773438 452.894531 823.304688 479.390625 851.097656 519.789062 C 858.070312 529.925781 851.109375 543.722656 838.804688 543.722656 Z M 856.449219 348.875 L 868.65625 361.082031 C 874.785156 367.210938 874.785156 377.148438 868.65625 383.277344 C 862.527344 389.40625 852.589844 389.40625 846.464844 383.277344 L 834.257812 371.070312 C 828.125 364.941406 818.191406 364.941406 812.0625 371.070312 L 799.855469 383.277344 C 793.726562 389.40625 783.789062 389.40625 777.660156 383.277344 C 771.53125 377.148438 771.53125 367.210938 777.660156 361.082031 L 789.867188 348.875 C 795.996094 342.746094 795.996094 332.8125 789.867188 326.683594 L 777.660156 314.476562 C 771.53125 308.34375 771.53125 298.410156 777.660156 292.28125 C 783.789062 286.152344 793.726562 286.152344 799.855469 292.28125 L 812.0625 304.488281 C 818.191406 310.617188 828.125 310.617188 834.257812 304.488281 L 846.464844 292.28125 C 852.589844 286.152344 862.527344 286.152344 868.65625 292.28125 C 874.785156 298.410156 874.785156 308.347656 868.65625 314.476562 L 856.449219 326.683594 C 850.320312 332.8125 850.320312 342.746094 856.449219 348.875 Z M 856.449219 348.875 " fill-opacity="1" fill-rule="nonzero"/></g></svg>