<svg xmlns="http://www.w3.org/2000/svg" xmlns:xlink="http://www.w3.org/1999/xlink" width="1920" zoomAndPan="magnify" viewBox="0 0 1440 809.999993" height="1080" preserveAspectRatio="xMidYMid meet" version="1.0"><defs><clipPath id="2039373dac"><path d="M 415.835938 20.589844 L 902 20.589844 L 902 789.339844 L 415.835938 789.339844 Z M 415.835938 20.589844 " clip-rule="nonzero"/></clipPath></defs><path fill="#ffffff" d="M 928.207031 620.59375 L 928.207031 536.589844 C 928.207031 529.019531 922.078125 522.800781 914.417969 522.800781 L 649.429688 522.800781 C 641.859375 522.800781 635.640625 516.671875 635.640625 509.011719 L 635.640625 301.078125 C 635.640625 293.507812 641.769531 287.289062 649.429688 287.289062 L 914.417969 287.289062 C 921.988281 287.289062 928.207031 281.160156 928.207031 273.496094 L 928.207031 189.496094 C 928.207031 177.777344 941.816406 171.46875 950.832031 178.859375 L 1210.226562 394.363281 C 1216.898438 399.859375 1216.898438 410.046875 1210.226562 415.542969 L 950.832031 631.226562 C 941.816406 638.617188 928.207031 632.308594 928.207031 620.59375 Z M 928.207031 620.59375 " fill-opacity="1" fill-rule="nonzero"/><path fill="#ffffff" d="M 946.234375 620.59375 C 946.234375 592.742188 946.953125 564.800781 946.234375 536.949219 C 945.78125 519.015625 932.171875 505.40625 914.328125 504.863281 C 912.433594 504.773438 910.542969 504.863281 908.738281 504.863281 C 897.742188 504.863281 886.835938 504.863281 875.839844 504.863281 C 838.4375 504.863281 800.941406 504.863281 763.539062 504.863281 C 730.820312 504.863281 698.011719 504.863281 665.292969 504.863281 C 661.328125 504.863281 657.453125 504.863281 653.488281 504.863281 C 652.496094 504.863281 651.414062 504.773438 650.421875 504.863281 C 650.242188 504.863281 649.882812 504.773438 649.703125 504.863281 C 649.339844 504.953125 653.578125 506.394531 650.601562 505.042969 C 651.324219 505.40625 653.757812 507.207031 651.59375 505.496094 C 651.953125 505.765625 654.660156 508.289062 652.496094 506.125 C 651.773438 505.40625 650.332031 503.511719 653.125 507.027344 C 652.585938 506.394531 651.503906 503.601562 653.578125 508.019531 C 652.226562 505.042969 653.488281 509.550781 653.757812 508.921875 C 653.9375 508.199219 653.757812 507.117188 653.757812 506.394531 C 653.757812 502.339844 653.757812 498.195312 653.757812 494.136719 C 653.757812 458.988281 653.757812 423.746094 653.757812 388.59375 C 653.757812 360.113281 653.757812 331.632812 653.757812 303.148438 C 653.757812 302.789062 653.9375 301.527344 653.757812 301.167969 C 653.757812 300.355469 653.578125 301.167969 653.308594 303.511719 C 653.667969 302.070312 654.296875 301.4375 652.585938 304.410156 C 653.9375 302.070312 651.683594 305.042969 651.683594 305.132812 C 651.503906 304.863281 653.578125 303.601562 653.308594 303.511719 C 653.398438 303.511719 649.703125 306.214844 652.585938 304.410156 C 652.226562 304.683594 648.710938 306.035156 651.683594 305.132812 C 649.339844 305.402344 648.621094 305.582031 649.339844 305.582031 C 649.972656 306.125 653.398438 305.582031 654.207031 305.582031 C 664.753906 305.582031 675.390625 305.582031 685.933594 305.582031 C 722.976562 305.582031 760.023438 305.582031 797.066406 305.582031 C 830.414062 305.582031 863.761719 305.582031 897.113281 305.582031 C 902.789062 305.582031 908.558594 305.765625 914.328125 305.582031 C 932.445312 304.953125 945.875 290.984375 946.144531 272.867188 C 946.234375 267.097656 946.144531 261.328125 946.144531 255.652344 C 946.144531 236.992188 946.144531 218.335938 946.144531 199.769531 C 946.144531 197.15625 946.144531 194.632812 946.144531 192.019531 C 946.144531 191.386719 946.144531 190.757812 946.144531 190.125 C 946.144531 190.035156 946.144531 189.945312 946.144531 189.855469 C 946.144531 189.40625 947.316406 191.117188 946.144531 188.683594 C 946.054688 189.585938 945.964844 190.394531 945.875 191.296875 C 946.324219 189.855469 946.234375 189.945312 945.691406 191.476562 C 944.339844 194.273438 947.316406 190.847656 944.882812 192.738281 C 942.71875 194.453125 944.519531 193.101562 945.152344 192.648438 C 946.863281 191.207031 942.085938 194.992188 943.890625 193.640625 C 944.429688 193.28125 946.503906 191.839844 943.980469 193.460938 C 941.636719 194.992188 945.242188 193.820312 942.359375 193.910156 C 939.292969 194 941.726562 194 942.449219 194.089844 C 944.792969 194.273438 938.390625 193.28125 940.734375 193.910156 C 942.71875 194.453125 937.128906 191.839844 939.835938 193.550781 C 943.257812 195.625 936.320312 190.484375 938.664062 192.558594 C 953.535156 205.449219 969.035156 217.796875 984.179688 230.324219 C 1013.203125 254.390625 1042.222656 278.542969 1071.246094 302.609375 C 1099.636719 326.222656 1128.027344 349.75 1156.417969 373.363281 C 1170.03125 384.71875 1184.089844 395.625 1197.339844 407.34375 C 1197.789062 407.792969 1198.242188 408.242188 1198.78125 408.695312 C 1200.585938 410.226562 1196.707031 405.988281 1197.96875 407.882812 C 1199.324219 409.867188 1196.707031 404.546875 1197.339844 406.710938 C 1198.058594 408.964844 1197.070312 402.835938 1197.070312 405.269531 C 1197.070312 407.34375 1198.332031 401.394531 1197.160156 404.367188 C 1198.960938 399.859375 1198.242188 402.386719 1197.609375 403.195312 C 1200.402344 399.589844 1198.691406 401.84375 1197.789062 402.746094 C 1197.519531 402.925781 1197.429688 403.015625 1197.339844 403.195312 C 1197.25 403.285156 1197.160156 403.375 1196.980469 403.464844 C 1195.445312 404.820312 1193.914062 405.988281 1192.382812 407.25 C 1184.902344 413.472656 1177.511719 419.601562 1170.03125 425.820312 C 1143.441406 447.902344 1116.851562 469.984375 1090.355469 492.066406 C 1060.25 517.03125 1030.144531 542.089844 1000.132812 567.054688 C 980.933594 583.007812 961.734375 598.960938 942.449219 614.914062 C 941.097656 616.085938 939.652344 617.167969 938.300781 618.339844 C 938.210938 618.429688 938.121094 618.519531 938.03125 618.609375 C 937.851562 618.789062 940.734375 616.535156 940.734375 616.535156 C 940.914062 616.535156 938.84375 617.617188 938.84375 617.707031 C 939.113281 616.625 942.628906 616.355469 940.195312 616.988281 C 944.792969 615.996094 943.078125 616.71875 941.457031 616.625 C 939.113281 616.535156 945.511719 617.4375 943.257812 616.808594 C 941.097656 616.175781 946.773438 618.699219 944.792969 617.527344 C 944.070312 617.167969 942.449219 615.816406 944.519531 617.617188 C 946.683594 619.421875 944.972656 617.890625 944.519531 617.347656 C 942.988281 615.726562 946.773438 620.414062 945.511719 618.519531 C 944.339844 616.625 946.683594 622.125 946.144531 619.960938 C 945.511719 617.257812 946.414062 624.558594 946.234375 620.59375 C 945.875 611.21875 938.210938 602.117188 928.207031 602.566406 C 918.742188 603.015625 909.820312 610.496094 910.179688 620.59375 C 910.632812 631.589844 915.769531 641.773438 925.324219 647.632812 C 934.785156 653.492188 946.773438 653.761719 956.597656 648.804688 C 959.933594 647.089844 962.816406 644.566406 965.703125 642.132812 C 972.011719 636.90625 978.320312 631.589844 984.628906 626.359375 C 1010.40625 604.910156 1036.183594 583.546875 1061.960938 562.097656 C 1092.878906 536.410156 1123.703125 510.8125 1154.617188 485.125 C 1175.257812 467.910156 1195.988281 450.785156 1216.628906 433.570312 C 1218.429688 432.039062 1220.324219 430.597656 1222.125 429.0625 C 1231.046875 421.492188 1234.742188 409.414062 1232.308594 398.058594 C 1229.96875 387.242188 1222.847656 381.746094 1215.1875 375.34375 C 1193.734375 357.5 1172.28125 339.742188 1150.921875 321.898438 C 1119.917969 296.121094 1089 270.433594 1057.996094 244.65625 C 1032.761719 223.65625 1007.523438 202.742188 982.375 181.742188 C 976.609375 176.964844 970.839844 172.097656 964.980469 167.324219 C 958.582031 162.09375 952.09375 158.21875 943.53125 157.769531 C 924.960938 156.6875 910.722656 172.097656 910.269531 189.945312 C 909.910156 204.996094 910.269531 220.050781 910.269531 235.101562 C 910.269531 244.292969 910.269531 253.488281 910.269531 262.679688 C 910.269531 265.476562 910.269531 268.359375 910.269531 271.152344 C 910.269531 271.785156 910.179688 272.503906 910.269531 273.046875 C 910.269531 273.136719 910.179688 273.40625 910.269531 273.40625 C 910.269531 273.40625 910.269531 273.496094 910.269531 273.496094 C 910.722656 270.972656 910.902344 270.433594 910.542969 271.785156 C 910.179688 273.136719 910.453125 272.59375 911.351562 270.34375 C 910 272.6875 912.253906 269.710938 912.253906 269.621094 C 912.164062 269.441406 910.8125 271.425781 910.632812 271.242188 C 910.722656 271.242188 913.695312 268.992188 911.351562 270.34375 C 914.238281 268.628906 913.695312 269.261719 912.253906 269.621094 C 919.105469 267.730469 914.867188 269.351562 914.328125 269.171875 C 913.695312 268.992188 912.796875 269.171875 912.164062 269.171875 C 908.558594 269.171875 905.042969 269.171875 901.4375 269.171875 C 887.828125 269.171875 874.21875 269.171875 860.609375 269.171875 C 821.222656 269.171875 781.925781 269.171875 742.535156 269.171875 C 713.425781 269.171875 684.402344 269.171875 655.289062 269.171875 C 653.398438 269.171875 651.503906 269.082031 649.613281 269.171875 C 631.765625 269.710938 618.335938 283.410156 617.703125 301.167969 C 617.433594 309.277344 617.703125 317.480469 617.703125 325.59375 C 617.703125 363.359375 617.703125 401.214844 617.703125 438.976562 C 617.703125 455.652344 617.703125 472.238281 617.703125 488.910156 C 617.703125 497.472656 616.984375 506.488281 618.425781 514.957031 C 621.039062 530.28125 635.011719 540.464844 650.152344 540.738281 C 652.675781 540.738281 655.289062 540.738281 657.8125 540.738281 C 669.980469 540.738281 682.148438 540.738281 694.226562 540.738281 C 732.894531 540.738281 771.558594 540.738281 810.226562 540.738281 C 841.679688 540.738281 873.046875 540.738281 904.503906 540.738281 C 907.476562 540.738281 910.453125 540.917969 913.335938 540.738281 C 913.515625 540.738281 914.328125 540.828125 914.507812 540.738281 C 913.964844 541.277344 910.453125 539.203125 913.335938 540.554688 C 908.828125 538.484375 911.714844 539.566406 912.34375 540.105469 C 908.917969 537.3125 910.8125 538.753906 911.441406 539.472656 C 913.605469 541.726562 911.082031 538.933594 910.8125 538.574219 C 912.613281 540.738281 910.722656 538.210938 910.363281 537.582031 C 911.714844 540.554688 909.730469 537.042969 910.179688 536.410156 C 910.089844 536.5 910.179688 536.679688 910.179688 536.679688 C 909.730469 538.121094 910.179688 540.375 910.179688 541.90625 C 910.179688 545.511719 910.179688 549.027344 910.179688 552.632812 C 910.179688 562.277344 910.179688 571.832031 910.179688 581.476562 C 910.179688 594.453125 910.179688 607.34375 910.179688 620.324219 C 910.179688 629.785156 918.472656 638.800781 928.207031 638.347656 C 938.03125 638.167969 946.234375 630.6875 946.234375 620.59375 Z M 946.234375 620.59375 " fill-opacity="1" fill-rule="nonzero"/><g clip-path="url(#2039373dac)"><path fill="#ffffff" d="M 865.027344 717.394531 C 853.667969 717.394531 842.402344 717.394531 831.046875 717.394531 C 804.007812 717.394531 776.878906 717.394531 749.835938 717.394531 C 717.390625 717.394531 684.941406 717.394531 652.40625 717.394531 C 624.914062 717.394531 597.425781 717.394531 569.933594 717.394531 C 557.769531 717.394531 545.601562 717.484375 533.433594 717.394531 C 529.648438 717.394531 525.953125 717.125 522.164062 716.582031 C 525.320312 717.035156 528.566406 717.484375 531.71875 717.84375 C 524.871094 716.851562 518.289062 715.050781 511.890625 712.4375 C 514.773438 713.609375 517.660156 714.871094 520.542969 716.042969 C 513.964844 713.246094 507.835938 709.640625 502.066406 705.316406 C 504.5 707.207031 506.933594 709.101562 509.367188 710.996094 C 503.777344 706.578125 498.730469 701.621094 494.40625 696.03125 C 496.296875 698.464844 498.191406 700.898438 500.082031 703.332031 C 495.757812 697.65625 492.152344 691.527344 489.359375 684.855469 C 490.53125 687.742188 491.792969 690.625 492.964844 693.507812 C 490.347656 687.109375 488.546875 680.53125 487.554688 673.679688 C 488.007812 676.835938 488.457031 680.078125 488.816406 683.234375 C 487.824219 675.484375 488.007812 667.640625 488.007812 659.800781 C 488.007812 647.179688 488.007812 634.5625 488.007812 622.035156 C 488.007812 579.132812 488.007812 536.140625 488.007812 493.238281 C 488.007812 440.78125 488.007812 388.414062 488.007812 335.957031 C 488.007812 290.890625 488.007812 245.917969 488.007812 200.851562 C 488.007812 180.03125 487.914062 159.210938 488.007812 138.480469 C 488.007812 134.605469 488.277344 130.730469 488.816406 126.945312 C 488.367188 130.097656 487.914062 133.34375 487.554688 136.496094 C 488.546875 129.648438 490.347656 123.066406 492.964844 116.667969 C 491.792969 119.550781 490.53125 122.4375 489.359375 125.320312 C 492.152344 118.742188 495.757812 112.613281 500.082031 106.84375 C 498.191406 109.277344 496.296875 111.710938 494.40625 114.144531 C 498.820312 108.558594 503.777344 103.507812 509.367188 99.183594 C 506.933594 101.074219 504.5 102.96875 502.066406 104.859375 C 507.746094 100.535156 513.875 96.929688 520.542969 94.136719 C 517.660156 95.308594 514.773438 96.570312 511.890625 97.742188 C 518.289062 95.128906 524.871094 93.324219 531.71875 92.332031 C 528.566406 92.785156 525.320312 93.234375 522.164062 93.59375 C 535.324219 91.882812 549.113281 92.785156 562.363281 92.785156 C 588.503906 92.785156 614.730469 92.785156 640.867188 92.785156 C 673.316406 92.785156 705.671875 92.785156 738.121094 92.785156 C 766.421875 92.785156 794.722656 92.785156 823.023438 92.785156 C 836.8125 92.785156 850.695312 93.054688 864.484375 92.785156 C 864.664062 92.785156 864.84375 92.785156 865.117188 92.785156 C 883.953125 92.785156 902.070312 76.199219 901.167969 56.730469 C 900.265625 37.171875 885.304688 20.679688 865.117188 20.679688 C 854.121094 20.679688 843.035156 20.679688 832.039062 20.679688 C 805.359375 20.679688 778.769531 20.679688 752.089844 20.679688 C 720.09375 20.679688 688.097656 20.679688 656.011719 20.679688 C 628.339844 20.679688 600.671875 20.679688 573 20.679688 C 559.929688 20.679688 546.863281 20.589844 533.792969 20.679688 C 510.898438 20.769531 486.835938 27.347656 468.085938 40.6875 C 444.023438 57.8125 425.183594 82.417969 418.964844 111.800781 C 415.902344 126.3125 415.992188 140.011719 415.992188 154.523438 C 415.992188 172.460938 415.992188 190.304688 415.992188 208.242188 C 415.992188 234.648438 415.992188 261.148438 415.992188 287.558594 C 415.992188 318.921875 415.992188 350.289062 415.992188 381.65625 C 415.992188 413.832031 415.992188 445.917969 415.992188 478.09375 C 415.992188 507.476562 415.992188 536.859375 415.992188 566.152344 C 415.992188 588.597656 415.992188 611.039062 415.992188 633.570312 C 415.992188 645.46875 415.992188 657.367188 415.992188 669.171875 C 415.992188 679.71875 417.074219 690.355469 419.507812 700.628906 C 426.535156 729.652344 445.464844 754.257812 469.980469 770.75 C 488.546875 783.191406 511.621094 789.320312 533.882812 789.410156 C 538.117188 789.410156 542.445312 789.410156 546.679688 789.410156 C 568.582031 789.410156 590.394531 789.410156 612.296875 789.410156 C 643.390625 789.410156 674.488281 789.410156 705.582031 789.410156 C 736.136719 789.410156 766.691406 789.410156 797.335938 789.410156 C 817.164062 789.410156 836.90625 789.410156 856.734375 789.410156 C 859.527344 789.410156 862.320312 789.410156 865.207031 789.410156 C 884.042969 789.410156 902.160156 772.824219 901.257812 753.355469 C 900.175781 733.886719 885.214844 717.394531 865.027344 717.394531 Z M 865.027344 717.394531 " fill-opacity="1" fill-rule="nonzero"/></g></svg>