<svg xmlns="http://www.w3.org/2000/svg" xmlns:xlink="http://www.w3.org/1999/xlink" width="500" zoomAndPan="magnify" viewBox="0 0 375 374.999991" height="500" preserveAspectRatio="xMidYMid meet" version="1.0"><defs><clipPath id="43a0a309a0"><path d="M 256 29 L 353.371094 29 L 353.371094 209 L 256 209 Z M 256 29 " clip-rule="nonzero"/></clipPath><clipPath id="b1d21b8420"><path d="M 22 42 L 244 42 L 244 346.523438 L 22 346.523438 Z M 22 42 " clip-rule="nonzero"/></clipPath></defs><g clip-path="url(#43a0a309a0)"><path fill="#c92626" d="M 256.953125 36.167969 C 262.722656 31.8125 269.859375 29.195312 277.613281 29.195312 L 318.9375 29.195312 C 337.917969 29.195312 353.371094 44.652344 353.371094 63.632812 L 353.371094 173.824219 C 353.371094 192.804688 337.917969 208.261719 318.9375 208.261719 L 256.953125 208.261719 Z M 256.953125 36.167969 " fill-opacity="1" fill-rule="nonzero"/></g><g clip-path="url(#b1d21b8420)"><path fill="#c92626" d="M 22.792969 156.609375 C 22.792969 144.664062 29.625 134.183594 39.804688 129.058594 C 37.683594 124.832031 36.566406 120.160156 36.566406 115.285156 C 36.566406 103.328125 43.414062 92.847656 53.589844 87.722656 C 50.4375 81.441406 49.515625 74.210938 51.097656 67.035156 C 54.183594 53.082031 67.3125 42.972656 82.3125 42.972656 L 208.742188 42.972656 C 217.78125 42.972656 231.964844 45.824219 243.179688 51.113281 L 243.179688 198.742188 L 241.527344 199.582031 L 201.855469 285.519531 L 201.855469 332.230469 C 201.855469 334.320312 200.90625 336.304688 199.28125 337.613281 C 198.839844 337.945312 188.621094 346.003906 174.308594 346.003906 C 158.371094 346.003906 132.984375 320.78125 132.984375 290.90625 C 132.984375 272.0625 139.734375 248.605469 143.949219 235.808594 L 58.867188 235.808594 C 40.328125 235.808594 24.554688 222.089844 22.945312 204.582031 C 22.046875 194.761719 25.328125 185.328125 31.757812 178.289062 C 26.070312 172.601562 22.792969 164.886719 22.792969 156.609375 Z M 22.792969 156.609375 " fill-opacity="1" fill-rule="nonzero"/></g></svg>